<svg xmlns="http://www.w3.org/2000/svg" viewBox="0 0 107.12 107.12"><defs><style>.cls-1{fill:#de5833;}.cls-1,.cls-10,.cls-2,.cls-6,.cls-9{fill-rule:evenodd;}.cls-2{fill:#ddd;}.cls-10,.cls-3{fill:#fff;}.cls-4{fill:#3ca82b;}.cls-5{fill:#4cba3c;}.cls-6{fill:#fc3;}.cls-7{opacity:0.8;}.cls-8,.cls-9{fill:#14307e;}</style></defs><g id="Capa_2" data-name="Capa 2"><g id="Capa_1-2" data-name="Capa 1"><path class="cls-1" d="M53.56,107.12A53.56,53.56,0,1,0,0,53.56a53.56,53.56,0,0,0,53.56,53.56Z"/><path class="cls-2" d="M61.09,93.52c0-.42.11-.51-1.22-3.16-3.54-7.08-7.09-17.06-5.47-23.5.29-1.17-3.34-43.3-5.9-44.66-2.84-1.52-6.35-3.92-9.55-4.46a20.18,20.18,0,0,0-5.43.09c-.29,0-.31.57,0,.67a7.14,7.14,0,0,1,3.2,2c.15.19-.05.48-.28.49a6.45,6.45,0,0,0-3.85,1.83.26.26,0,0,0,.23.45c3.8-.75,7.67-.38,10,1.69a.25.25,0,0,1-.12.43C22.81,30.76,26.73,48,32,69.18,36.67,87.84,38.45,94,39,95.9a.72.72,0,0,0,.43.47c6.85,2.7,21.64,2.81,21.64-1.8Z"/><path class="cls-3" d="M63.81,97.5c-2.4.94-7.11,1.36-9.83,1.36-4,0-9.73-.63-11.82-1.57-1.29-4-5.16-16.3-9-32l-.37-1.53h0C28.27,45.25,24.56,30.1,44.88,25.35a.26.26,0,0,0,.15-.42c-2.33-2.76-6.7-3.67-12.22-1.76a.23.23,0,0,1-.28-.35,12.08,12.08,0,0,1,4.24-3.14.26.26,0,0,0,0-.49,23.06,23.06,0,0,0-3.16-.76c-.31-.05-.34-.58,0-.62,7.83-1,16,1.3,20.11,6.47a.26.26,0,0,0,.16.09c15,3.23,16.1,27,14.37,28.06a7.26,7.26,0,0,1-2.88-.07c-5.85-.65-17.42-2-7.87,15.86a.31.31,0,0,1-.23.44c-5.38.84,1.52,17.72,6.59,28.84Z"/><path class="cls-4" d="M70.53,75.9c-1.14-.53-5.54,2.63-8.46,5-.61-.86-1.76-1.49-4.35-1-2.27.4-3.53.94-4.09,1.89-3.58-1.36-9.61-3.46-11.07-1.43-1.59,2.21.4,12.68,2.52,14,1.1.71,6.38-2.68,9.14-5,.45.62,1.16,1,2.63,1,2.23,0,5.85-.57,6.41-1.61a1.13,1.13,0,0,0,.08-.22c2.84,1.06,7.83,2.18,8.94,2C75.19,90.09,71.88,76.53,70.53,75.9Z"/><path class="cls-5" d="M62.34,81.26a4,4,0,0,1,.3.67c.41,1.13,1.06,4.73.57,5.61s-3.74,1.32-5.73,1.35S55,88.2,54.63,87.07a17.25,17.25,0,0,1-.48-4.25c-.08-1.8.58-2.44,3.63-2.93,2.26-.37,3.45.06,4.14.79,3.2-2.39,8.55-5.77,9.07-5.15,2.6,3.07,2.92,10.39,2.36,13.34-.18,1-8.79-1-8.79-2,0-4.31-1.12-5.49-2.22-5.61ZM43.49,79.91c.7-1.11,6.42.28,9.56,1.67a13.87,13.87,0,0,0,.38,6.36c.3,1-7.22,5.49-8.2,4.72-1.14-.89-3.22-10.4-1.74-12.75Z"/><path class="cls-6" d="M46.26,57.25c.46-2,2.61-5.8,10.31-5.71,3.89,0,8.72,0,11.92-.37a42.4,42.4,0,0,0,10.65-2.59c3.33-1.27,4.52-1,4.93-.22S84,50.63,82.82,52c-2.22,2.54-6.22,4.5-13.27,5.09S57.81,55.74,55.8,58.82c-.87,1.33-.2,4.46,6.63,5.45,9.22,1.33,16.8-1.6,17.73.17s-4.45,5.38-13.69,5.45-15-3.23-17.06-4.88a8,8,0,0,1-3.16-7.76Z"/><g class="cls-7"><path class="cls-8" d="M58,35.26c.52-.85,1.66-1.5,3.53-1.5a3.75,3.75,0,0,1,3.36,1.57.2.2,0,0,1-.26.29l-.14-.06a6.81,6.81,0,0,0-3-.69,6,6,0,0,0-3.12.7C58.22,35.68,57.9,35.46,58,35.26ZM37,36.33a6.72,6.72,0,0,1,4.25-.42c.21.05.36-.18.19-.31A4.91,4.91,0,0,0,36.59,35a4.21,4.21,0,0,0-3,3.38c0,.25.51.27.64.06A5.18,5.18,0,0,1,37,36.33Z"/><path class="cls-9" d="M63.14,46.8A2.9,2.9,0,1,1,66,43.9,2.9,2.9,0,0,1,63.14,46.8Zm2-3.86a.75.75,0,0,0-1.5,0h0a.75.75,0,0,0,1.5,0Zm-21.31,3a3.37,3.37,0,0,1-3.38,3.37h0a3.38,3.38,0,1,1,3.38-3.37Zm-1-1.12a.88.88,0,1,0-.88.87A.88.88,0,0,0,42.88,44.79Z"/></g><path class="cls-10" d="M53.56,98.54a45,45,0,1,0-45-45A45,45,0,0,0,53.56,98.54Zm0,4.19A49.17,49.17,0,1,0,4.4,53.56a49.17,49.17,0,0,0,49.16,49.17Z"/></g></g></svg>