<?xml version="1.0" encoding="utf-8"?>
<svg version="1.1"
    xmlns="http://www.w3.org/2000/svg"
    xmlns:xlink="http://www.w3.org/1999/xlink" viewBox="0 0 800 800" xml:space="preserve">
    <style type="text/css">
	.st0{fill:#7F7F7F;}
	.st1{fill:url(#SVGID_1_);}
	.st2{fill:url(#SVGID_2_);}
	.st3{fill:url(#SVGID_3_);}
	.st4{opacity:0.15;fill:#7F7F7F;enable-background:new;}
	.st5{opacity:0.15;enable-background:new;}
    </style>
    <path class="st0" d="M392.3,277.4c-0.1,1-0.1,2-0.1,3.1c0,4.2,0.8,8.2,2.3,11.8l1.3,2.8l5.3,13.6l27.5,70.2l24,61.3
	c6.9,12.4,17.8,22.1,31,27.3l4.1,1.5c0.2,0,0.4,0,0.6,0.1l65.8,22.6v0l25.2,8.6l1.7,0.6c0.1,0,0.2,0.1,0.2,0.1c5,1.3,9.8,2.9,14.5,5
	c10.7,4.6,20.5,11.2,28.8,19.3c3.4,3.2,6.4,6.7,9.3,10.3c2.4,3.1,4.6,6.3,6.6,9.7c8.8,14.6,13.8,31.7,13.8,50c0,3.3-0.2,6.4-0.5,9.6
	c-0.1,1.4-0.3,2.8-0.5,4.1v0.1c-0.2,1.4-0.5,2.9-0.8,4.4c-0.3,1.4-0.5,2.8-0.9,4.2c0,0.2-0.1,0.3-0.2,0.5c-0.3,1.4-0.7,2.8-1.1,4.2
	c-0.3,1.3-0.8,2.7-1.3,4c-0.4,1.4-0.9,2.8-1.5,4.2c-0.5,1.4-1.1,2.8-1.7,4.2c-1.8,4.1-3.9,8.1-6.3,11.8c-3.1,5-6.6,9.6-10.5,14
	c30.9-33.2,51.4-76.1,56.5-123.5c0.9-7.8,1.3-15.7,1.3-23.6c0-5.1-0.2-10.1-0.5-15.1c-3.9-56.9-29.8-107.8-69.3-144.1
	c-10.9-10.1-22.8-19.1-35.6-26.7l-24.2-12.4l-122.6-62.9c-3.8-1.6-7.8-2.4-11.9-2.4C407,249.8,393.9,261.9,392.3,277.4L392.3,277.4z
	"/>
    <linearGradient id="SVGID_1_" gradientUnits="userSpaceOnUse" x1="425.8416" y1="515.3539" x2="681.5156" y2="230.4109" gradientTransform="matrix(1 0 0 -1 0 802)">
        <stop offset="0" style="stop-color:#37BDFF"/>
        <stop offset="0.25" style="stop-color:#26C6F4"/>
        <stop offset="0.5" style="stop-color:#15D0E9"/>
        <stop offset="0.75" style="stop-color:#3BD6DF"/>
        <stop offset="1" style="stop-color:#62DCD4"/>
    </linearGradient>
    <path class="st1" d="M392.3,277.4c-0.1,1-0.1,2-0.1,3.1c0,4.2,0.8,8.2,2.3,11.8l1.3,2.8l5.3,13.6l27.5,70.2l24,61.3
	c6.9,12.4,17.8,22.1,31,27.3l4.1,1.5c0.2,0,0.4,0,0.6,0.1l65.8,22.6v0l25.2,8.6l1.7,0.6c0.1,0,0.2,0.1,0.2,0.1c5,1.3,9.8,2.9,14.5,5
	c10.7,4.6,20.5,11.2,28.8,19.3c3.4,3.2,6.4,6.7,9.3,10.3c2.4,3.1,4.6,6.3,6.6,9.7c8.8,14.6,13.8,31.7,13.8,50c0,3.3-0.2,6.4-0.5,9.6
	c-0.1,1.4-0.3,2.8-0.5,4.1v0.1c-0.2,1.4-0.5,2.9-0.8,4.4c-0.3,1.4-0.5,2.8-0.9,4.2c0,0.2-0.1,0.3-0.2,0.5c-0.3,1.4-0.7,2.8-1.1,4.2
	c-0.3,1.3-0.8,2.7-1.3,4c-0.4,1.4-0.9,2.8-1.5,4.2c-0.5,1.4-1.1,2.8-1.7,4.2c-1.8,4.1-3.9,8.1-6.3,11.8c-3.1,5-6.6,9.6-10.5,14
	c30.9-33.2,51.4-76.1,56.5-123.5c0.9-7.8,1.3-15.7,1.3-23.6c0-5.1-0.2-10.1-0.5-15.1c-3.9-56.9-29.8-107.8-69.3-144.1
	c-10.9-10.1-22.8-19.1-35.6-26.7l-24.2-12.4l-122.6-62.9c-3.8-1.6-7.8-2.4-11.9-2.4C407,249.8,393.9,261.9,392.3,277.4L392.3,277.4z
	"/>
    <path class="st0" d="M174,0c-17.4,0.3-31.5,14.6-31.5,32v559.1c0.1,3.9,0.3,7.8,0.6,11.7c0.3,2.1,0.5,4.2,0.9,6.3
	c8,44.9,47,78.9,94.1,78.9c16.5,0,32-4.2,45.6-11.5c0.1-0.1,0.2-0.1,0.3-0.1l4.9-3l19.8-11.6l25.2-14.9l0.1-496.7
	c0-33-16.5-62.1-41.8-79.4c-0.6-0.4-1.2-0.7-1.7-1.2l-97.9-64c-5-3.3-10.9-5.3-17.3-5.5H174z"/>
    <linearGradient id="SVGID_2_" gradientUnits="userSpaceOnUse" x1="242.1568" y1="126.001" x2="233.9338" y2="758.312" gradientTransform="matrix(1 0 0 -1 0 802)">
        <stop offset="0" style="stop-color:#1B48EF"/>
        <stop offset="0.5" style="stop-color:#2080F1"/>
        <stop offset="1" style="stop-color:#26B8F4"/>
    </linearGradient>
    <path class="st2" d="M174,0c-17.4,0.3-31.5,14.6-31.5,32v559.1c0.1,3.9,0.3,7.8,0.6,11.7c0.3,2.1,0.5,4.2,0.9,6.3
	c8,44.9,47,78.9,94.1,78.9c16.5,0,32-4.2,45.6-11.5c0.1-0.1,0.2-0.1,0.3-0.1l4.9-3l19.8-11.6l25.2-14.9l0.1-496.7
	c0-33-16.5-62.1-41.8-79.4c-0.6-0.4-1.2-0.7-1.7-1.2l-97.9-64c-5-3.3-10.9-5.3-17.3-5.5H174z"/>
    <path class="st0" d="M562.1,510.7L337.1,644.2l-3.2,2v0.7l-25.2,14.9l-19.8,11.7l-4.9,2.9l-0.3,0.2c-13.5,7.3-29,11.5-45.6,11.5
	c-47.1,0-86.2-34-94.2-78.9c3.8,32.8,15,63.4,31.8,90c34.8,54.9,93.5,93,161.5,99.7h41.6c36.8-3.8,67.5-18.6,99.8-38.5l49.6-30.4
	c22.4-14.3,83-49.6,100.9-69.4c3.9-4.3,7.4-9,10.5-13.9c2.4-3.8,4.5-7.7,6.3-11.8c0.6-1.4,1.2-2.8,1.7-4.2c0.5-1.4,1-2.8,1.5-4.2
	c0.9-2.7,1.7-5.4,2.4-8.2c0.4-1.6,0.7-3.2,1-4.7c1.1-5.9,1.7-11.9,1.7-18.2c0-18.3-5-35.4-13.8-50c-2-3.4-4.2-6.7-6.6-9.7
	c-2.9-3.7-5.9-7.1-9.3-10.3c-8.3-8-18-14.6-28.8-19.3c-4.6-2-9.5-3.7-14.5-5c-0.1,0-0.2-0.1-0.2-0.1l-1.7-0.6L562.1,510.7z"/>
    <linearGradient id="SVGID_3_" gradientUnits="userSpaceOnUse" x1="399.1538" y1="152.38" x2="1017.9628" y2="152.38" gradientTransform="matrix(1 0 0 -1 0 802)">
        <stop offset="0" style="stop-color:#39D2FF"/>
        <stop offset="0.5" style="stop-color:#248FFA"/>
        <stop offset="1" style="stop-color:#104CF5"/>
    </linearGradient>
    <path class="st3" d="M562.1,510.7L337.1,644.2l-3.2,2v0.7l-25.2,14.9l-19.8,11.7l-4.9,2.9l-0.3,0.2c-13.5,7.3-29,11.5-45.6,11.5
	c-47.1,0-86.2-34-94.2-78.9c3.8,32.8,15,63.4,31.8,90c34.8,54.9,93.5,93,161.5,99.7h41.6c36.8-3.8,67.5-18.6,99.8-38.5l49.6-30.4
	c22.4-14.3,83-49.6,100.9-69.4c3.9-4.3,7.4-9,10.5-13.9c2.4-3.8,4.5-7.7,6.3-11.8c0.6-1.4,1.2-2.8,1.7-4.2c0.5-1.4,1-2.8,1.5-4.2
	c0.9-2.7,1.7-5.4,2.4-8.2c0.4-1.6,0.7-3.2,1-4.7c1.1-5.9,1.7-11.9,1.7-18.2c0-18.3-5-35.4-13.8-50c-2-3.4-4.2-6.7-6.6-9.7
	c-2.9-3.7-5.9-7.1-9.3-10.3c-8.3-8-18-14.6-28.8-19.3c-4.6-2-9.5-3.7-14.5-5c-0.1,0-0.2-0.1-0.2-0.1l-1.7-0.6L562.1,510.7z"/>
    <path class="st4" d="M654.3,595.4c0,6.3-0.6,12.3-1.7,18.2c-0.3,1.6-0.7,3.1-1,4.7c-0.7,2.8-1.4,5.5-2.4,8.2c-0.5,1.4-1,2.8-1.5,4.2
	c-0.5,1.4-1.1,2.8-1.7,4.2c-1.8,4.1-3.9,8.1-6.3,11.8c-3.1,5-6.6,9.6-10.5,13.9c-17.9,19.8-78.6,55-100.9,69.4l-49.6,30.4
	c-36.4,22.4-70.8,38.3-114.1,39.4c-2,0.1-4.1,0.1-6,0.1c-2.8,0-5.6,0-8.3-0.2c-73.4-2.8-137.4-42.3-174.4-100.5
	c-17.3-27.2-28.2-58-31.8-90c7.9,44.9,47,78.9,94.2,78.9c16.5,0,32-4.2,45.6-11.5l0.3-0.2l4.9-2.9l19.8-11.7l25.2-14.9v-0.7l3.2-2
	l225.1-133.4l17.3-10.3l1.7,0.6c0,0,0.2,0.1,0.2,0.1c5,1.2,9.8,2.9,14.5,5c10.8,4.6,20.5,11.2,28.8,19.3c3.3,3.2,6.5,6.7,9.3,10.3
	c2.4,3.1,4.6,6.3,6.6,9.7C649.3,560,654.3,577.1,654.3,595.4L654.3,595.4z"/>
    <path class="st5" d="M654.3,595.4c0,6.3-0.6,12.3-1.7,18.2c-0.3,1.6-0.7,3.1-1,4.7c-0.7,2.8-1.4,5.5-2.4,8.2c-0.5,1.4-1,2.8-1.5,4.2
	c-0.5,1.4-1.1,2.8-1.7,4.2c-1.8,4.1-3.9,8.1-6.3,11.8c-3.1,5-6.6,9.6-10.5,13.9c-17.9,19.8-78.6,55-100.9,69.4l-49.6,30.4
	c-36.4,22.4-70.8,38.3-114.1,39.4c-2,0.1-4.1,0.1-6,0.1c-2.8,0-5.6,0-8.3-0.2c-73.4-2.8-137.4-42.3-174.4-100.5
	c-17.3-27.2-28.2-58-31.8-90c7.9,44.9,47,78.9,94.2,78.9c16.5,0,32-4.2,45.6-11.5l0.3-0.2l4.9-2.9l19.8-11.7l25.2-14.9v-0.7l3.2-2
	l225.1-133.4l17.3-10.3l1.7,0.6c0,0,0.2,0.1,0.2,0.1c5,1.2,9.8,2.9,14.5,5c10.8,4.6,20.5,11.2,28.8,19.3c3.3,3.2,6.5,6.7,9.3,10.3
	c2.4,3.1,4.6,6.3,6.6,9.7C649.3,560,654.3,577.1,654.3,595.4L654.3,595.4z"/>
</svg>
