<svg xmlns="http://www.w3.org/2000/svg" viewBox="0 0 32 32">
    <defs>
        <style>
    #weather-linea {fill: #000;}</style>
    </defs>
    <g id="weather-linea" class="weather-linea">
        <path d="M29.84,15a1.5,1.5,0,0,0-1.23-.86,5.35,5.35,0,0,1-3.41-1.72,6.46,6.46,0,0,1-1.28-6.39,1.62,1.62,0,0,0-.3-1.55A1.46,1.46,0,0,0,22.26,4h0A7.91,7.91,0,0,0,16,11.46,7.36,7.36,0,0,0,13.5,11a7.55,7.55,0,0,0-7.15,5.24A6,6,0,0,0,8,28H19a6,6,0,0,0,6-6,5.83,5.83,0,0,0-.39-2.09,7.49,7.49,0,0,0,5.14-3.36A1.53,1.53,0,0,0,29.84,15ZM19,26H8a4,4,0,0,1-.67-7.93L8,18l.15-.66a5.49,5.49,0,0,1,10.72,0L19,18l.66.11A4,4,0,0,1,19,26Zm4.47-8h0a5.91,5.91,0,0,0-2.79-1.76,7.51,7.51,0,0,0-2.6-3.67c0-.1,0-.2,0-.3a6.06,6.06,0,0,1,3.79-6,8.44,8.44,0,0,0,1.94,7.59A7.35,7.35,0,0,0,27.64,16,5.43,5.43,0,0,1,23.47,18Z"/>
    </g>
</svg>