<svg xmlns="http://www.w3.org/2000/svg" viewBox="0 0 32 32">
    <defs>
        <style>
    #weather-linea {fill: #000;}</style>
    </defs>
    <g id="weather-linea" class="weather-linea">
        <path d="M30,15.5a6.53,6.53,0,0,0-5.2-6.36,9,9,0,0,0-17.6,0A6.53,6.53,0,0,0,2,15.5a6.42,6.42,0,0,0,1.69,4.35A5.93,5.93,0,0,0,2,24a6,6,0,0,0,6,6H19a6,6,0,0,0,6-6,5.89,5.89,0,0,0-.39-2.1A6.5,6.5,0,0,0,30,15.5ZM19,28H8a4,4,0,0,1-.67-7.93L8,20l.15-.66a5.49,5.49,0,0,1,10.72,0L19,20l.66.11A4,4,0,0,1,19,28Zm4.5-8h-.05a6,6,0,0,0-2.8-1.76,7.5,7.5,0,0,0-14.3,0,7.13,7.13,0,0,0-1,.41A4.45,4.45,0,0,1,4,15.5,4.51,4.51,0,0,1,8.14,11L9,11l.1-.82a7,7,0,0,1,13.88,0L23,11l.82.06a4.5,4.5,0,0,1-.36,9Z"/>
    </g>
</svg>