<svg xmlns="http://www.w3.org/2000/svg" viewBox="0 0 32 32">
    <defs>
        <style>
    #weather-linea {fill: #000;}</style>
    </defs>
    <g id="weather-linea" class="weather-linea">
        <path d="M11,30a.93.93,0,0,1-.45-.11,1,1,0,0,1-.44-1.34l2-4a1,1,0,1,1,1.78.9l-2,4A1,1,0,0,1,11,30Z"/>
        <path d="M24.8,9.14a9,9,0,0,0-17.6,0A6.5,6.5,0,0,0,8.5,22H19.38L18.1,24.55a1,1,0,0,0,.45,1.34A.93.93,0,0,0,19,26a1,1,0,0,0,.89-.55L21.62,22H23.5A6.5,6.5,0,0,0,24.8,9.14ZM23.5,20H8.5a4.5,4.5,0,0,1-.36-9L9,11l.1-.82a7,7,0,0,1,13.88,0L23,11l.82.06a4.5,4.5,0,0,1-.36,9Z"/>
    </g>
</svg>