<svg xmlns="http://www.w3.org/2000/svg" viewBox="0 0 32 32">
    <defs>
        <style>
    #weather-linea {fill: #000;}</style>
    </defs>
    <g id="weather-linea" class="weather-linea">
        <path d="M24.8,11.14a9,9,0,0,0-17.6,0A6.53,6.53,0,0,0,2,17.5H2V19a1,1,0,0,0,1,1H15a1,1,0,0,0,0-2H4v-.5H4A4.51,4.51,0,0,1,8.14,13L9,13l.1-.81a7,7,0,0,1,13.88,0L23,13l.82.06a4.5,4.5,0,0,1-.36,9H7a1,1,0,0,0,0,2H23.5a6.5,6.5,0,0,0,1.3-12.86Z"/>
        <rect x="2" y="26" width="18" height="2" rx="1"/>
    </g>
</svg>