<svg xmlns="http://www.w3.org/2000/svg" viewBox="0 0 32 32">
    <defs>
        <style>
    #weather-linea {fill: #000;}</style>
    </defs>
    <g id="weather-linea" class="weather-linea">
        <path d="M8.51,32a.91.91,0,0,1-.45-.11,1,1,0,0,1-.45-1.34l1.49-3a1,1,0,0,1,1.35-.45,1,1,0,0,1,.45,1.35l-1.49,3A1,1,0,0,1,8.51,32Z"/>
        <path d="M29.84,13a1.5,1.5,0,0,0-1.23-.86,5.35,5.35,0,0,1-3.41-1.72,6.46,6.46,0,0,1-1.28-6.39,1.62,1.62,0,0,0-.3-1.55A1.46,1.46,0,0,0,22.26,2h0A7.87,7.87,0,0,0,16.13,8.5,7.45,7.45,0,0,0,13.5,8a7.55,7.55,0,0,0-7.15,5.24A6,6,0,0,0,8,25h7.38l-1.27,2.55a1,1,0,0,0,.44,1.35A1,1,0,0,0,15,29a1,1,0,0,0,.89-.55L17.62,25H19a6,6,0,0,0,6-6,6.32,6.32,0,0,0-.12-1.15,7.46,7.46,0,0,0,4.87-3.3A1.53,1.53,0,0,0,29.84,13ZM19,23H8a4,4,0,0,1-.67-7.93L8,15l.15-.66a5.49,5.49,0,0,1,10.72,0L19,15l.66.11A4,4,0,0,1,19,23Zm5.15-7a6,6,0,0,0-3.5-2.71A7.49,7.49,0,0,0,18,9.55,6,6,0,0,1,21.8,4.22a8.44,8.44,0,0,0,1.94,7.59A7.35,7.35,0,0,0,27.64,14,5.43,5.43,0,0,1,24.15,16Z"/>
    </g>
</svg>