<svg xmlns="http://www.w3.org/2000/svg" viewBox="0 0 32 32">
    <defs>
        <style>
    #weather-linea {fill: #000;}</style>
    </defs>
    <g id="weather-linea" class="weather-linea">
        <path d="M8.51,32a.91.91,0,0,1-.45-.11,1,1,0,0,1-.45-1.34l1.49-3a1,1,0,0,1,1.35-.44,1,1,0,0,1,.45,1.34l-1.49,3A1,1,0,0,1,8.51,32Z"/>
        <rect x="27.23" y="15.73" width="2" height="3" transform="translate(-3.92 25.02) rotate(-45.01)"/>
        <rect x="29" y="10" width="3" height="2"/>
        <rect x="26.73" y="3.77" width="3" height="2" transform="translate(4.9 21.36) rotate(-45)"/>
        <rect x="20" width="2" height="3"/>
        <rect x="12.77" y="3.27" width="2" height="3" transform="translate(0.66 11.13) rotate(-45)"/>
        <path d="M27,11A6,6,0,0,0,15.63,8.33,7.19,7.19,0,0,0,13.5,8a7.55,7.55,0,0,0-7.15,5.24A6,6,0,0,0,8,25h7.38l-1.27,2.55a1,1,0,0,0,.44,1.34A.93.93,0,0,0,15,29a1,1,0,0,0,.89-.55L17.62,25H19a6,6,0,0,0,5.22-8.95A6,6,0,0,0,27,11ZM19,23H8a4,4,0,0,1-.67-7.93L8,15l.15-.66a5.49,5.49,0,0,1,10.72,0L19,15l.66.11A4,4,0,0,1,19,23Zm3.93-8.51a6.11,6.11,0,0,0-2.28-1.25,7.52,7.52,0,0,0-3.19-4.06,4,4,0,1,1,5.47,5.31Z"/>
    </g>
</svg>