<svg xmlns="http://www.w3.org/2000/svg" viewBox="0 0 32 32">
    <defs>
        <style>
    #weather-linea {fill: #000;}</style>
    </defs>
    <g id="weather-linea" class="weather-linea">
        <rect x="6" y="24" width="2" height="2"/>
        <rect x="8" y="26" width="2" height="2"/>
        <rect x="10" y="28" width="2" height="2"/>
        <rect x="10" y="24" width="2" height="2"/>
        <rect x="6" y="28" width="2" height="2"/>
        <path d="M21,30a.93.93,0,0,1-.45-.11,1,1,0,0,1-.44-1.34l2-4a1,1,0,1,1,1.78.9l-2,4A1,1,0,0,1,21,30Z"/>
        <path d="M24.8,9.14a9,9,0,0,0-17.6,0A6.5,6.5,0,0,0,8.5,22h8.88l-1.27,2.55a1,1,0,0,0,.44,1.34A.93.93,0,0,0,17,26a1,1,0,0,0,.89-.55L19.62,22H23.5A6.5,6.5,0,0,0,24.8,9.14ZM23.5,20H8.5a4.5,4.5,0,0,1-.36-9L9,11l.1-.82a7,7,0,0,1,13.88,0L23,11l.82.06a4.5,4.5,0,0,1-.36,9Z"/>
    </g>
</svg>