<svg xmlns="http://www.w3.org/2000/svg" viewBox="0 0 32 32">
    <defs>
        <style>
    #weather-linea {fill: #000;}</style>
    </defs>
    <g id="weather-linea" class="weather-linea">
        <path d="M29.84,13a1.5,1.5,0,0,0-1.23-.86,5.35,5.35,0,0,1-3.41-1.72,6.46,6.46,0,0,1-1.28-6.39,1.62,1.62,0,0,0-.3-1.55A1.46,1.46,0,0,0,22.26,2h0A7.74,7.74,0,0,0,16.36,7.6a7.41,7.41,0,0,0-10,4.64A6,6,0,0,0,8,24H19a6,6,0,0,0,6-6c0-.06,0-.11,0-.17a7.51,7.51,0,0,0,4.76-3.28A1.53,1.53,0,0,0,29.84,13ZM19,22H8a4,4,0,0,1-.67-7.93L8,14l.15-.66a5.49,5.49,0,0,1,10.72,0L19,14l.66.11A4,4,0,0,1,19,22Zm5.6-6.13a6,6,0,0,0-4-3.63,7.57,7.57,0,0,0-2.49-3.58A5.87,5.87,0,0,1,21.8,4.22a8.44,8.44,0,0,0,1.94,7.59A7.35,7.35,0,0,0,27.64,14,5.42,5.42,0,0,1,24.6,15.87Z"/>
        <rect x="2" y="26" width="2" height="2"/>
        <rect x="4" y="28" width="2" height="2"/>
        <rect x="6" y="30" width="2" height="2"/>
        <rect x="6" y="26" width="2" height="2"/>
        <rect x="2" y="30" width="2" height="2"/>
        <rect x="20" y="26" width="2" height="2"/>
        <rect x="22" y="28" width="2" height="2"/>
        <rect x="24" y="30" width="2" height="2"/>
        <rect x="24" y="26" width="2" height="2"/>
        <rect x="20" y="30" width="2" height="2"/>
        <rect x="11" y="26" width="2" height="2"/>
        <rect x="13" y="28" width="2" height="2"/>
        <rect x="15" y="30" width="2" height="2"/>
        <rect x="15" y="26" width="2" height="2"/>
        <rect x="11" y="30" width="2" height="2"/>

    </g>
</svg>