<svg xmlns="http://www.w3.org/2000/svg" viewBox="0 0 32 32">
    <defs>
        <style>
    #weather-linea {fill: #000;}</style>
    </defs>
    <g id="weather-linea" class="weather-linea">
        <rect x="15" y="26" width="2" height="2"/>
        <rect x="17" y="28" width="2" height="2"/>
        <rect x="19" y="30" width="2" height="2"/>
        <rect x="19" y="26" width="2" height="2"/>
        <rect x="15" y="30" width="2" height="2"/>
        <rect x="13" y="16" width="2" height="2"/>
        <rect x="15" y="18" width="2" height="2"/>
        <rect x="17" y="20" width="2" height="2"/>
        <rect x="17" y="16" width="2" height="2"/>
        <rect x="13" y="20" width="2" height="2"/>
        <path d="M10,30a.93.93,0,0,1-.45-.11,1,1,0,0,1-.44-1.34l2-4a1,1,0,1,1,1.78.9l-2,4A1,1,0,0,1,10,30Z"/>
        <path d="M24.8,9.14a9,9,0,0,0-17.6,0A6.52,6.52,0,0,0,2,15.5V22l1,2,1-2V20.18A6.45,6.45,0,0,0,7.43,21.9L6.11,24.55a1,1,0,0,0,.44,1.34A.93.93,0,0,0,7,26a1,1,0,0,0,.89-.55l2-4a1,1,0,0,0-.44-1.35A1.06,1.06,0,0,0,9,20v0H8.5a4.5,4.5,0,0,1-.36-9L9,11l.1-.82a7,7,0,0,1,13.88,0L23,11l.82.06a4.5,4.5,0,0,1-.36,9H23a1,1,0,0,0-1,1v3l1,2,1-2V22a6.36,6.36,0,0,0,2-.47V26l1,2,1-2V20.18a6.48,6.48,0,0,0-3.2-11Z"/>
    </g>
</svg>