<svg xmlns="http://www.w3.org/2000/svg" viewBox="0 0 32 32">
    <defs>
        <style>
    #weather-linea {fill: #000;}</style>
    </defs>
    <g id="weather-linea" class="weather-linea">
        <rect x="2" y="26" width="2" height="2"/>
        <rect x="4" y="28" width="2" height="2"/>
        <rect x="6" y="30" width="2" height="2"/>
        <rect x="6" y="26" width="2" height="2"/>
        <rect x="2" y="30" width="2" height="2"/>
        <rect x="20" y="26" width="2" height="2"/>
        <rect x="22" y="28" width="2" height="2"/>
        <rect x="24" y="30" width="2" height="2"/>
        <rect x="24" y="26" width="2" height="2"/>
        <rect x="20" y="30" width="2" height="2"/>
        <rect x="11" y="26" width="2" height="2"/>
        <rect x="13" y="28" width="2" height="2"/>
        <rect x="15" y="30" width="2" height="2"/>
        <rect x="15" y="26" width="2" height="2"/>
        <rect x="11" y="30" width="2" height="2"/>
        <rect x="20" width="2" height="3"/>
        <rect x="29" y="10" width="3" height="2"/>
        <rect x="26.73" y="3.77" width="3" height="2" transform="translate(4.9 21.36) rotate(-45)"/>
        <rect x="26.73" y="16.23" width="3" height="2" transform="translate(36.01 49.38) rotate(-135)"/>
        <rect x="12.27" y="3.77" width="3" height="2" transform="translate(20.13 17.88) rotate(-135)"/>
        <path d="M27,11A6,6,0,0,0,16.14,7.51,7.34,7.34,0,0,0,13.5,7a7.55,7.55,0,0,0-7.15,5.24A6,6,0,0,0,8,24H19a6,6,0,0,0,5.57-8.2A6,6,0,0,0,27,11ZM19,22H8a4,4,0,0,1-.67-7.93L8,14l.15-.66a5.49,5.49,0,0,1,10.72,0L19,14l.66.11A4,4,0,0,1,19,22Zm4.52-7.91a6,6,0,0,0-2.87-1.85,7.55,7.55,0,0,0-2.72-3.78A4,4,0,0,1,21,7a4,4,0,0,1,2.52,7.09Z"/>
    </g>
</svg>