<svg id="Capa_1" data-name="Capa 1" xmlns="http://www.w3.org/2000/svg" xmlns:xlink="http://www.w3.org/1999/xlink" viewBox="0 0 1199.98 418.58"><defs><style>.cls-1{fill:url(#Degradado_sin_nombre_82);}.cls-2{fill:#09204d;}.cls-3{fill:#0e56d7;}.cls-4{fill:#1053d1;}.cls-5{fill:#0b4fbf;}.cls-6{fill:#0b48b0;}.cls-7{fill:#0c45a7;}.cls-8{fill:#0f46af;}.cls-9{fill:#0c47ad;}.cls-10{fill:#0e4fc3;}.cls-11{fill:#174dca;}.cls-12{fill:#1650d4;}.cls-13{fill:#1246b2;}.cls-14{fill:#133ea1;}.cls-15{fill:#103d98;}.cls-16{fill:#0b3785;}.cls-17{fill:#0b3685;}.cls-18{fill:#0c3b91;}.cls-19{fill:#0b3279;}.cls-20{fill:#0f388d;}.cls-21{fill:#0d3481;}.cls-22{fill:#0b2e71;}.cls-23{fill:#0e2f77;}.cls-24{fill:#0e2969;}.cls-25{fill:#0c2a69;}.cls-26{fill:#123180;}.cls-27{fill:#112b70;}.cls-28{fill:#12378c;}.cls-29{fill:#122e7b;}.cls-30{fill:#11296c;}.cls-31{fill:#142a72;}.cls-32{fill:#112768;}.cls-33{fill:#1c226a;}.cls-34{fill:#182b7a;}.cls-35{fill:#1f308d;}.cls-36{fill:#1e2b7f;}.cls-37{fill:#1346b5;}.cls-38{fill:#1244ac;}.cls-39{fill:#0e4ab6;}.cls-40{fill:#0e4bba;}.cls-41{fill:#0a4ebc;}.cls-42{fill:#0c54cc;}.cls-43{fill:#0b4bb4;}.cls-44{fill:#0c3889;}.cls-45{fill:#202575;}.cls-46{fill:#1b2773;}.cls-47{fill:#15276d;}.cls-48{fill:#0c409d;}.cls-49{fill:#0b4cb7;}.cls-50{fill:#0b55ce;}.cls-51{fill:#0a52c5;}.cls-52{fill:#0951c4;}.cls-53{fill:#0b50c4;}.cls-54{fill:#0f4dbf;}.cls-55{fill:#1546b6;}.cls-56{fill:#1549bd;}.cls-57{fill:#144bc3;}.cls-58{fill:#173794;}.cls-59{fill:#192f84;}.cls-60{fill:#1a389b;}.cls-61{fill:#1d3089;}.cls-62{fill:#1e389f;}.cls-63{fill:#1c40af;}.cls-64{fill:#1e41b7;}.cls-65{fill:#192c7d;}.cls-66{fill:#162467;}.cls-67{fill:#1a236a;}.cls-68{fill:#132668;}.cls-69{fill:#1b2268;}.cls-70{fill:#212a81;}.cls-71{fill:#21267a;}.cls-72{fill:#262781;}.cls-73{fill:#272379;}.cls-74{fill:#1e226d;}.cls-75{fill:#222475;}.cls-76{fill:#23277d;}.cls-77{fill:#1e2776;}.cls-78{fill:#222b86;}.cls-79{fill:#192974;}.cls-80{fill:#172a75;}.cls-81{fill:#172d7d;}.cls-82{fill:#18338a;}.cls-83{fill:#153791;}.cls-84{fill:#1b318b;}.cls-85{fill:#242d8d;}.cls-86{fill:#2a2b8f;}.cls-87{fill:#27267f;}.cls-88{fill:#2d2381;}.cls-89{fill:#2f2485;}.cls-90{fill:#233196;}.cls-91{fill:#293cb7;}.cls-92{fill:#25339c;}.cls-93{fill:#19348f;}.cls-94{fill:#2a309a;}.cls-95{fill:#302b96;}.cls-96{fill:#3630a7;}.cls-97{fill:#173da2;}.cls-98{fill:#2a36a8;}.cls-99{fill:#312e9f;}.cls-100{fill:#184dcd;}.cls-101{fill:#272986;}.cls-102{fill:#2c2584;}.cls-103{fill:#32268b;}.cls-104{fill:#372999;}.cls-105{fill:#392da5;}.cls-106{fill:#3338bc;}.cls-107{fill:#362896;}.cls-108{fill:#35268f;}.cls-109{fill:#2648d3;}.cls-110{fill:#1057dc;}.cls-111{fill:#1653da;}.cls-112{fill:#2b46d5;}.cls-113{fill:#244ad7;}.cls-114{fill:#2547cf;}.cls-115{fill:#333cc5;}.cls-116{fill:#3833b6;}.cls-117{fill:#2a41c6;}.cls-118{fill:#2045c1;}.cls-119{fill:#1b43b7;}.cls-120{fill:#1742af;}.cls-121{fill:#1740a9;}.cls-122{fill:#1b3ca4;}.cls-123{fill:#1f3dad;}.cls-124{fill:#2543c3;}.cls-125{fill:#2e37b2;}.cls-126{fill:#2d40c7;}.cls-127{fill:#3537b8;}.cls-128{fill:#3931b0;}.cls-129{fill:#3735b8;}.cls-130{fill:#342892;}.cls-131{fill:#232372;}.cls-132{fill:#2a2f96;}.cls-133{fill:#2636a5;}.cls-134{fill:url(#Degradado_sin_nombre_13);}.cls-135{fill:url(#Degradado_sin_nombre_14);}.cls-136{fill:url(#Degradado_sin_nombre_15);}.cls-137{fill:url(#Degradado_sin_nombre_16);}.cls-138{fill:url(#Degradado_sin_nombre_17);}.cls-139{fill:url(#Degradado_sin_nombre_18);}.cls-140{fill:url(#Degradado_sin_nombre_19);}.cls-141{fill:url(#Degradado_sin_nombre_20);}.cls-142{fill:url(#Degradado_sin_nombre_21);}.cls-143{fill:url(#Degradado_sin_nombre_22);}.cls-144{fill:url(#Degradado_sin_nombre_23);}.cls-145{fill:url(#Degradado_sin_nombre_24);}.cls-146{fill:url(#Degradado_sin_nombre_25);}.cls-147{fill:url(#Degradado_sin_nombre_26);}.cls-148{fill:url(#Degradado_sin_nombre_27);}.cls-149{fill:url(#Degradado_sin_nombre_28);}.cls-150{fill:url(#Degradado_sin_nombre_29);}.cls-151{fill:url(#Degradado_sin_nombre_30);}.cls-152{fill:url(#Degradado_sin_nombre_31);}.cls-153{fill:url(#Degradado_sin_nombre_32);}.cls-154{font-size:151.32px;font-family:Metropolis-Bold, Metropolis;font-weight:700;}.cls-154,.cls-157{fill:#fff;}.cls-155{letter-spacing:-0.07em;}.cls-156{letter-spacing:0em;}.cls-157{font-size:100.14px;font-family:Metropolis-SemiBold, Metropolis;font-weight:600;}</style><linearGradient id="Degradado_sin_nombre_82" y1="599.95" x2="1199.98" y2="599.95" gradientUnits="userSpaceOnUse"><stop offset="0" stop-color="#0a214d"/><stop offset="1" stop-color="#0290ee"/></linearGradient><radialGradient id="Degradado_sin_nombre_13" cx="368.27" cy="539.42" r="22.65" gradientTransform="translate(-1262.51 -1645.43) scale(4.09 4.1)" gradientUnits="userSpaceOnUse"><stop offset="0.1" stop-color="#0df" stop-opacity="0.4"/><stop offset="0.9" stop-color="#7542e5" stop-opacity="0.25"/></radialGradient><radialGradient id="Degradado_sin_nombre_14" cx="366.09" cy="549.87" r="19.26" gradientTransform="translate(-1262.51 -1645.43) scale(4.09 4.1)" gradientUnits="userSpaceOnUse"><stop offset="0.91" stop-color="#7542e5" stop-opacity="0"/><stop offset="1" stop-color="#0df" stop-opacity="0.4"/></radialGradient><radialGradient id="Degradado_sin_nombre_15" cx="355.07" cy="573.92" r="89.4" gradientTransform="translate(-1262.51 -1645.34) scale(4.54 3.69)" gradientUnits="userSpaceOnUse"><stop offset="0" stop-color="#80ebff"/><stop offset="0.26" stop-color="#0df"/><stop offset="0.53" stop-color="#0090ed"/><stop offset="0.86" stop-color="#0060df"/></radialGradient><radialGradient id="Degradado_sin_nombre_16" cx="328.34" cy="610.94" r="89.4" gradientTransform="translate(-1262.51 -1645.34) scale(4.54 3.69)" gradientUnits="userSpaceOnUse"><stop offset="0.3" stop-color="#321c64" stop-opacity="0.8"/><stop offset="0.37" stop-color="#212f83" stop-opacity="0.5"/><stop offset="0.48" stop-color="#0a47ac" stop-opacity="0.14"/><stop offset="0.53" stop-color="#0250bb" stop-opacity="0"/></radialGradient><radialGradient id="Degradado_sin_nombre_17" cx="359.9" cy="535.89" r="139.68" gradientTransform="translate(-1262.51 -1645.4) scale(4.47 3.75)" gradientUnits="userSpaceOnUse"><stop offset="0" stop-color="#80ebff"/><stop offset="0.47" stop-color="#00b3f4"/><stop offset="0.84" stop-color="#0060df"/><stop offset="1" stop-color="#592acb"/></radialGradient><linearGradient id="Degradado_sin_nombre_18" x1="451.51" y1="286.95" x2="479.62" y2="470.33" gradientTransform="translate(-1.25 0) scale(0.69 1.45)" gradientUnits="userSpaceOnUse"><stop offset="0" stop-color="#aaf2ff"/><stop offset="0.29" stop-color="#0df"/><stop offset="0.61" stop-color="#0090ed"/><stop offset="0.89" stop-color="#0250bb"/></linearGradient><linearGradient id="Degradado_sin_nombre_19" x1="335.54" y1="337.45" x2="360.34" y2="460.57" gradientTransform="translate(-1.25 0) scale(0.77 1.3)" gradientUnits="userSpaceOnUse"><stop offset="0" stop-color="#aaf2ff"/><stop offset="0.29" stop-color="#0df"/><stop offset="0.74" stop-color="#0090ed"/><stop offset="1" stop-color="#0250bb"/></linearGradient><radialGradient id="Degradado_sin_nombre_20" cx="363.89" cy="513.37" r="28.38" gradientTransform="translate(-1262.51 -1645.39) scale(4.09 4.1)" gradientUnits="userSpaceOnUse"><stop offset="0" stop-color="#0df"/><stop offset="0.82" stop-color="#0090ed"/></radialGradient><radialGradient id="Degradado_sin_nombre_21" cx="361.56" cy="558.63" r="85.36" gradientTransform="translate(-1262.51 -1645.33) scale(4.33 3.88)" gradientUnits="userSpaceOnUse"><stop offset="0.29" stop-color="#80ebff"/><stop offset="1" stop-color="#00b3f4"/></radialGradient><radialGradient id="Degradado_sin_nombre_22" cx="359.11" cy="529.28" r="71.75" gradientTransform="translate(-1262.51 -1645.36) scale(4.13 4.06)" gradientUnits="userSpaceOnUse"><stop offset="0.18" stop-color="#aaf2ff"/><stop offset="0.43" stop-color="#0df"/><stop offset="0.69" stop-color="#0060df"/></radialGradient><linearGradient id="Degradado_sin_nombre_23" x1="357.15" y1="479.33" x2="144.25" y2="701.9" gradientTransform="translate(-1.25 0) scale(0.98 1.02)" gradientUnits="userSpaceOnUse"><stop offset="0.24" stop-color="#80ebff" stop-opacity="0.5"/><stop offset="0.7" stop-color="#0df" stop-opacity="0"/></linearGradient><linearGradient id="Degradado_sin_nombre_24" x1="203.34" y1="586.9" x2="174.29" y2="699.5" gradientTransform="translate(-1.25 0) scale(1.03 0.97)" gradientUnits="userSpaceOnUse"><stop offset="0" stop-color="#bff3ff" stop-opacity="0.9"/><stop offset="1" stop-color="#80ebff" stop-opacity="0.5"/></linearGradient><linearGradient id="Degradado_sin_nombre_25" x1="503.59" y1="278.15" x2="498.51" y2="517.08" gradientTransform="translate(-1.25 0) scale(0.64 1.56)" gradientUnits="userSpaceOnUse"><stop offset="0" stop-color="#bff3ff"/><stop offset="1" stop-color="#0df" stop-opacity="0"/></linearGradient><linearGradient id="Degradado_sin_nombre_26" x1="320.15" y1="354.69" x2="316.83" y2="452.02" gradientTransform="translate(-1.25 0) scale(0.82 1.23)" gradientUnits="userSpaceOnUse"><stop offset="0" stop-color="#bff3ff"/><stop offset="1" stop-color="#aaf2ff" stop-opacity="0.5"/></linearGradient><linearGradient id="Degradado_sin_nombre_27" x1="321.93" y1="494.18" x2="315.34" y2="653.21" gradientTransform="translate(-1.25 0) scale(0.89 1.12)" xlink:href="#Degradado_sin_nombre_25"/><linearGradient id="Degradado_sin_nombre_28" x1="166.89" y1="601.03" x2="175.66" y2="737.92" gradientTransform="translate(-1.25 0) scale(1.06 0.94)" gradientUnits="userSpaceOnUse"><stop offset="0" stop-color="#bff3ff" stop-opacity="0.8"/><stop offset="1" stop-color="#80ebff" stop-opacity="0.2"/></linearGradient><linearGradient id="Degradado_sin_nombre_29" x1="194.78" y1="482.2" x2="159.43" y2="539.62" gradientTransform="translate(-1.25 0) scale(0.98 1.02)" xlink:href="#Degradado_sin_nombre_28"/><linearGradient id="Degradado_sin_nombre_30" x1="168.01" y1="470.99" x2="161.33" y2="655.07" gradientTransform="translate(-1.25 0) scale(0.8 1.25)" gradientUnits="userSpaceOnUse"><stop offset="0" stop-color="#0df" stop-opacity="0.4"/><stop offset="1" stop-color="#0df" stop-opacity="0"/></linearGradient><linearGradient id="Degradado_sin_nombre_31" x1="197.49" y1="366.89" x2="197.49" y2="583.36" gradientTransform="translate(-1.25 0) scale(0.79 1.26)" xlink:href="#Degradado_sin_nombre_25"/><linearGradient id="Degradado_sin_nombre_32" x1="367.17" y1="422.38" x2="354.09" y2="738.37" gradientTransform="translate(-1.25 0) scale(0.84 1.18)" gradientUnits="userSpaceOnUse"><stop offset="0" stop-color="#bff3ff" stop-opacity="0.8"/><stop offset="1" stop-color="#0df" stop-opacity="0"/></linearGradient></defs><g id="background"><path class="cls-1" d="M1200,411.6a20.94,20.94,0,0,0-20.9-21H20.91A20.94,20.94,0,0,0,0,411.6V788.29a20.94,20.94,0,0,0,20.91,21H1179.08a20.93,20.93,0,0,0,20.9-21V411.6Z" transform="translate(0 -390.65)"/></g><g id="logo"><path class="cls-2" d="M164.1,629.2l10,27.7,15,20.3,35.3,6.7,16.9,1.4,28.8-7.2,12.4-11.9Z" transform="translate(0 -390.65)"/><path class="cls-2" d="M313.3,588.2l-3.5-11.7-10.1-19.1-11.5-12.2-12.3-8.8-10.6-4.2-12.8-4.5-21-1.3-13.3,2.4-10.8,3.3-19.2,11.3-12,13.4-11.1,18-4.4,15.3-.8,23.2,4.2,15.8,9.2,18,6.5,8.7,8.9,8.2,11.1,7.5,13.7,6,23,2.7,12,.3,17.8-5,15.9-8.7,10.2-8.7,7.9-9.5,11.2-22,2.5-15Z" transform="translate(0 -390.65)"/><path class="cls-3" d="M231.8,537l-9.4,9.4,15.4,6.2,11.4-14.2Z" transform="translate(0 -390.65)"/><path class="cls-4" d="M237.8,552.5l29.7-.9-18.3-13.3Z" transform="translate(0 -390.65)"/><path class="cls-5" d="M265.3,538.2l-16.1.1,18.3,13.3,16.9-1.1Z" transform="translate(0 -390.65)"/><path class="cls-6" d="M284.4,550.5l-9.6-13.3,13.3,8Z" transform="translate(0 -390.65)"/><path class="cls-7" d="M297.2,558.7l-12.7-8.1,3.7-5.3Z" transform="translate(0 -390.65)"/><path class="cls-8" d="M284.4,550.5l-2.1,9.1,11.7,4.7Z" transform="translate(0 -390.65)"/><path class="cls-9" d="M284.4,550.5l12.7,8.1-3.2,5.6Z" transform="translate(0 -390.65)"/><path class="cls-10" d="M267.5,551.6l16.9-1.1-2.1,9.1Z" transform="translate(0 -390.65)"/><path class="cls-11" d="M267.5,551.6l-13.4,12.1,17.2,8.4Z" transform="translate(0 -390.65)"/><path class="cls-12" d="M237.8,552.5l29.7-.9-13.4,12.1Z" transform="translate(0 -390.65)"/><path class="cls-13" d="M282.3,559.6l8.1,15.7,3.6-11.1Z" transform="translate(0 -390.65)"/><path class="cls-14" d="M290.4,575.4l3.6-11.1,8.5,20.2Z" transform="translate(0 -390.65)"/><path class="cls-15" d="M294,564.3l12.9,9.5-4.4,10.7Z" transform="translate(0 -390.65)"/><path class="cls-16" d="M297.2,558.7l2.5-1.3,7.2,16.4Z" transform="translate(0 -390.65)"/><path class="cls-17" d="M306.9,573.8l2.9,2.7-10.1-19.1Z" transform="translate(0 -390.65)"/><path class="cls-18" d="M306.9,573.8l-9.7-15.1-3.2,5.6Zm-18.8-28.5,9,13.4,2.5-1.2Z" transform="translate(0 -390.65)"/><path class="cls-19" d="M312.7,597.4l-2.9-20.9,3.5,11.7-.6,9.2Z" transform="translate(0 -390.65)"/><path class="cls-20" d="M306.9,573.8l5.8,23.6-2.9-20.9Z" transform="translate(0 -390.65)"/><path class="cls-21" d="M302.4,584.5l10.2,12.9-5.8-23.6Z" transform="translate(0 -390.65)"/><path class="cls-22" d="M312.6,597.4l.7-9.2.7,23.5-1.4-14.3Z" transform="translate(0 -390.65)"/><path class="cls-23" d="M310.9,616l3.1-4.2-1.4-14.3Z" transform="translate(0 -390.65)"/><path class="cls-24" d="M311.5,626.8l-2.4,1.2,4.9-16.2Z" transform="translate(0 -390.65)"/><path class="cls-25" d="M309.1,628l4.9-16.2-3.1,4.2Z" transform="translate(0 -390.65)"/><path class="cls-26" d="M310.9,616l1.7-18.6-5.2,6.2Z" transform="translate(0 -390.65)"/><path class="cls-27" d="M309.1,628l1.9-12-10.1,17Z" transform="translate(0 -390.65)"/><path class="cls-28" d="M302.4,584.5l10.2,12.9-5.2,6.2Z" transform="translate(0 -390.65)"/><path class="cls-29" d="M310.9,616l-3.5-12.4-5.3,15.2Z" transform="translate(0 -390.65)"/><path class="cls-30" d="M300.3,648.7l8.8-20.8-8.2,15.2Z" transform="translate(0 -390.65)"/><path class="cls-31" d="M300.9,643.1l8.2-15.2-8.3,5Z" transform="translate(0 -390.65)"/><path class="cls-32" d="M309.1,628l-8.8,20.8,11.2-22Zm-16.7,30.2,7.9-9.5.6-5.6ZM282.1,667l10.2-8.7-10.8,5Z" transform="translate(0 -390.65)"/><path class="cls-33" d="M222.5,673l-10.3,2.5.3-7.2Z" transform="translate(0 -390.65)"/><path class="cls-34" d="M165.1,574.8l2.8-1.1-7.2,16.4Z" transform="translate(0 -390.65)"/><path class="cls-35" d="M160.7,590.1l5.5-1,1.7-15.4Z" transform="translate(0 -390.65)"/><path class="cls-36" d="M161.1,609.8l-.3-19.7,5.5-1Z" transform="translate(0 -390.65)"/><path class="cls-37" d="M282.3,559.6l-11,12.6,19.1,3.2Zm-95.7-12.9,14-9.6-12.5,6.2Z" transform="translate(0 -390.65)"/><path class="cls-38" d="M188.2,543.4l19.2-11.3-6.7,5-12.5,6.3" transform="translate(0 -390.65)"/><path class="cls-39" d="M200.6,537.2l17.5-8.4-10.8,3.3Z" transform="translate(0 -390.65)"/><path class="cls-40" d="M267.5,551.6l3.8,20.6,11-12.6Zm-56.2-15.4,16.3-6.6-9.5-.9Z" transform="translate(0 -390.65)"/><path class="cls-41" d="M231.4,526.4l-13.3,2.4,9.5.9Z" transform="translate(0 -390.65)"/><path class="cls-42" d="M244,529.5l-16.3.2,3.8-3.2" transform="translate(0 -390.65)"/><path class="cls-43" d="M274.8,537.3l-9.5,1,19.1,12.3ZM244,529.5l21.3,2.8-12.8-4.5Z" transform="translate(0 -390.65)"/><path class="cls-44" d="M274.8,537.3l-9.6-5,10.6,4.2Z" transform="translate(0 -390.65)"/><path class="cls-45" d="M164.1,629.2l6.3,5.2-9.3-24.6Zm86.7,48.9,5.5-13-20.1,5.4Zm5.5-13.1,16.8,4.7,1-13Z" transform="translate(0 -390.65)"/><path class="cls-46" d="M281.6,663.2l-7.4-6.5,17.9-11.9Z" transform="translate(0 -390.65)"/><path class="cls-47" d="M292.1,644.8l-10.5,18.4,10.8-5,8.5-15.1Z" transform="translate(0 -390.65)"/><path class="cls-48" d="M275.9,536.5l-1.1.8,13.3,8Zm-10.6,1.8,9.5-1-9.6-5Z" transform="translate(0 -390.65)"/><path class="cls-49" d="M231.4,526.4l12.5,3.1,8.5-1.7Zm33.8,5.9-21.3-2.8,21.3,8.8Z" transform="translate(0 -390.65)"/><path class="cls-50" d="M244,529.5l5.2,8.9,16.1-.1Z" transform="translate(0 -390.65)"/><path class="cls-51" d="M244,529.5l5.2,8.9L231.8,537Z" transform="translate(0 -390.65)"/><path class="cls-52" d="M227.7,529.6l4.2,7.3,12.2-7.5Z" transform="translate(0 -390.65)"/><path class="cls-53" d="M211.3,536.2l16.3-6.5,4.2,7.3Z" transform="translate(0 -390.65)"/><path class="cls-54" d="M200.6,537.2l10.7-1,6.9-7.4Zm10.7-1,11.1,10.1,9.4-9.4Z" transform="translate(0 -390.65)"/><path class="cls-55" d="M211.3,536.2l-18,16.9,7.4-16Z" transform="translate(0 -390.65)"/><path class="cls-56" d="M193.3,553.1l11.5,1.9,6.5-18.9Z" transform="translate(0 -390.65)"/><path class="cls-57" d="M204.8,555l6.5-18.9,11.1,10.1Z" transform="translate(0 -390.65)"/><path class="cls-58" d="M176.2,556.8l.7,6.8,9.8-16.8Z" transform="translate(0 -390.65)"/><path class="cls-59" d="M167.9,573.7l8.2-16.9.7,6.8Z" transform="translate(0 -390.65)"/><path class="cls-60" d="M176.9,563.6l9.8-16.8,6.6,6.4Z" transform="translate(0 -390.65)"/><path class="cls-61" d="M176.2,578.2l.6-14.6-8.9,10.1Z" transform="translate(0 -390.65)"/><path class="cls-62" d="M176.2,578.2l.6-14.6,11.6,9.4Z" transform="translate(0 -390.65)"/><path class="cls-63" d="M188.4,573l4.9-19.9-16.4,10.5Z" transform="translate(0 -390.65)"/><path class="cls-64" d="M188.4,573l4.9-19.9,11.5,1.9Z" transform="translate(0 -390.65)"/><path class="cls-65" d="M166.2,589.1l1.7-15.4,8.3,4.5Z" transform="translate(0 -390.65)"/><path class="cls-66" d="M250.8,678.1l15.5-2.4,6.9-5.9ZM160,613.3l1.1-3.6-.3-19.7Zm6.2-24.2-5.1,20.7,9.3,24.6-4.5-28.5Z" transform="translate(0 -390.65)"/><path class="cls-67" d="M170.4,634.4l7.7,1.1-5.4-12.6Z" transform="translate(0 -390.65)"/><path class="cls-68" d="M281.6,663.2l-8.4,6.6-6.9,5.9,15.9-8.7Zm-45.1,17.1,12,.3,17.8-5L250.8,678Zm-59-31.7,8.1,1.5-7.5-14.8Z" transform="translate(0 -390.65)"/><path class="cls-69" d="M212.5,668.3l-13.6-10.5-5.7,5.5,19,12.3Zm-48.4-39.1,9.2,18-2.9-12.9Zm-4.2-15.9,4.2,15.8-3-19.4Zm76.3,57.2-23.7-2.1,10,4.7-10.3,2.5-12.4-3.9,13.7,6,23,2.7,14.3-2.3ZM178,635.4l-7.6-1.1,7.2,14.3Zm-12.2-29.5,4.6,28.5,2.3-11.5Zm19.8,44.3-8.1-1.5-4.3-1.4,6.5,8.7,8.9,8.2,11.1,7.6-6.5-8.4Z" transform="translate(0 -390.65)"/><path class="cls-70" d="M166.2,589.1,177,605.9l-.7-27.6Z" transform="translate(0 -390.65)"/><path class="cls-71" d="M165.8,605.9l6.8,17,4.4-17Z" transform="translate(0 -390.65)"/><path class="cls-72" d="M172.6,622.9l4.4-17,5.4,13.5Z" transform="translate(0 -390.65)"/><path class="cls-73" d="M178,635.4l20.7,12.9-16.4-29Z" transform="translate(0 -390.65)"/><path class="cls-74" d="M173.3,647.2l4.3,1.4-7.2-14.3Zm45.8,7.4-6.5,13.7,23.7,2.1ZM178,635.4l7.5,14.8,7.6,13.1,5.7-5.5-.1-9.5Z" transform="translate(0 -390.65)"/><path class="cls-75" d="M274.2,656.7l-1,13,8.4-6.6Zm-36.3-1.9-1.7,15.6,20.1-5.4-.7-17.6Z" transform="translate(0 -390.65)"/><path class="cls-76" d="M165.8,605.9H177l-10.8-16.8Zm89.8,41.6.7,17.6,17.8-8.4Z" transform="translate(0 -390.65)"/><path class="cls-77" d="M255.6,647.5l11.5-10.4,7.1,19.6Z" transform="translate(0 -390.65)"/><path class="cls-78" d="M274.2,656.7l8.7-26.3-15.8,6.7Z" transform="translate(0 -390.65)"/><path class="cls-79" d="M292.1,644.8l-17.9,11.9,8.7-26.3Z" transform="translate(0 -390.65)"/><path class="cls-80" d="M300.8,633l-18-2.6,9.2,14.4,8.8-1.7Z" transform="translate(0 -390.65)"/><path class="cls-81" d="M302.1,618.8l-19.2,11.5,18,2.6,10.1-17Z" transform="translate(0 -390.65)"/><path class="cls-82" d="M167.9,573.7l8.2-16.9-11.1,18Zm127,21,7.2,24.2,5.3-15.2Z" transform="translate(0 -390.65)"/><path class="cls-83" d="M307.4,603.6l-5-19.1-7.5,10.2Z" transform="translate(0 -390.65)"/><path class="cls-84" d="M282.9,630.3l19.2-11.5-18.6-8.3Z" transform="translate(0 -390.65)"/><path class="cls-85" d="M282.9,630.3l-17.4-17.6,1.6,24.3Z" transform="translate(0 -390.65)"/><path class="cls-86" d="M255.6,647.5l-13.4-11.8,24.9,1.4Z" transform="translate(0 -390.65)"/><path class="cls-87" d="M178,635.4l4.4-16.1-9.8,3.6Zm64.3.2L238,654.8l17.7-7.4Z" transform="translate(0 -390.65)"/><path class="cls-88" d="M214.6,639.6l-12.9-6.5-3,15.3,20.3,6.3,18.9.2Z" transform="translate(0 -390.65)"/><path class="cls-89" d="M237.9,654.8l4.3-19.2-27.7,3.9Z" transform="translate(0 -390.65)"/><path class="cls-90" d="M177,605.8l5.5-17.7-6.3-9.9Z" transform="translate(0 -390.65)"/><path class="cls-91" d="M188.4,573l24.4-7.1-12.9,26.3Z" transform="translate(0 -390.65)"/><path class="cls-92" d="M282.9,630.3l-17.4-17.6,18-2.2Z" transform="translate(0 -390.65)"/><path class="cls-93" d="M302.1,618.8l-7.2-24.2-11.4,15.9Z" transform="translate(0 -390.65)"/><path class="cls-94" d="M267.1,637.1l-19.9-19.3,18.3-5Z" transform="translate(0 -390.65)"/><path class="cls-95" d="M242.3,635.6l24.9,1.4-19.9-19.3Z" transform="translate(0 -390.65)"/><path class="cls-96" d="M242.3,635.6l-13.6-11.1,18.6-6.7Z" transform="translate(0 -390.65)"/><path class="cls-97" d="M186.6,546.8l1.5-3.4-12,13.4Zm103.8,28.6,4.5,19.3,7.5-10.2Z" transform="translate(0 -390.65)"/><path class="cls-98" d="M188.4,573l11.5,19.2-17.4-4.1Z" transform="translate(0 -390.65)"/><path class="cls-99" d="M182.5,588.1l17.4,4.1-11.7,18.5Z" transform="translate(0 -390.65)"/><path class="cls-100" d="M212.8,565.9l9.6-19.6L204.8,555Z" transform="translate(0 -390.65)"/><path class="cls-101" d="M177,605.8l11.2,4.9-5.8,8.6Z" transform="translate(0 -390.65)"/><path class="cls-102" d="M188.2,610.7l-5.8,8.6,16.4,29,3-15.3Z" transform="translate(0 -390.65)"/><path class="cls-103" d="M201.7,633l1.8-26.9-15.4,4.7Z" transform="translate(0 -390.65)"/><path class="cls-104" d="M201.7,633l26.9-8.5L203.5,606Z" transform="translate(0 -390.65)"/><path class="cls-105" d="M228.6,624.5,226,603.7l-22.5,2.4Z" transform="translate(0 -390.65)"/><path class="cls-106" d="M226,603.7l19-7.1,2.2,21.2Z" transform="translate(0 -390.65)"/><path class="cls-107" d="M214.6,639.6l27.7-3.9-13.6-11.1Z" transform="translate(0 -390.65)"/><path class="cls-108" d="M214.6,639.6l-12.9-6.5,26.9-8.5Z" transform="translate(0 -390.65)"/><path class="cls-109" d="M212.8,565.9l16.5,1.7-6.9-21.3Z" transform="translate(0 -390.65)"/><path class="cls-110" d="M237.8,552.5l-15.4-6.2,6.9,21.3Z" transform="translate(0 -390.65)"/><path class="cls-111" d="M237.8,552.5l16.4,11.2-24.9,3.9Z" transform="translate(0 -390.65)"/><path class="cls-112" d="M229.2,567.6l24.4,12.9-8.6,16Z" transform="translate(0 -390.65)"/><path class="cls-113" d="M253.6,580.6l.5-16.8-24.9,3.9Z" transform="translate(0 -390.65)"/><path class="cls-114" d="M253.6,580.6l.5-16.8,17.2,8.4Z" transform="translate(0 -390.65)"/><path class="cls-115" d="M229.2,567.6l15.7,28.9-27.6-13.8Z" transform="translate(0 -390.65)"/><path class="cls-116" d="M226,603.7l19-7.1-27.6-13.8Z" transform="translate(0 -390.65)"/><path class="cls-117" d="M245,596.6l24.3-4.5-15.7-11.5Z" transform="translate(0 -390.65)"/><path class="cls-118" d="M271.3,572.2l-2,19.9-15.7-11.5Z" transform="translate(0 -390.65)"/><path class="cls-119" d="M271.3,572.2l11.5,15.6-13.5,4.3Z" transform="translate(0 -390.65)"/><path class="cls-120" d="M290.4,575.4l-19.1-3.2,11.5,15.6Z" transform="translate(0 -390.65)"/><path class="cls-121" d="M193.3,553.1l7.4-16-14,9.6Zm97.1,22.3-7.6,12.5,12.1,6.8Z" transform="translate(0 -390.65)"/><path class="cls-122" d="M283.5,610.5l11.4-15.9-12.1-6.8Z" transform="translate(0 -390.65)"/><path class="cls-123" d="M283.5,610.5l-.6-22.7-13.5,4.3Z" transform="translate(0 -390.65)"/><path class="cls-124" d="M188.4,573l24.4-7.1-8-10.9ZM245,596.6l20.5,16.2,3.9-20.6Z" transform="translate(0 -390.65)"/><path class="cls-125" d="M247.2,617.8l18.3-5L245,596.6Z" transform="translate(0 -390.65)"/><path class="cls-126" d="M212.8,565.9l4.6,16.8,11.9-15.1Z" transform="translate(0 -390.65)"/><path class="cls-127" d="M212.8,565.9l-12.9,26.3,17.5-9.5Z" transform="translate(0 -390.65)"/><path class="cls-128" d="M217.4,582.8l-13.9,23.3,22.5-2.4Z" transform="translate(0 -390.65)"/><path class="cls-129" d="M226,603.7l2.6,20.8,18.6-6.7Zm-22.5,2.4,13.9-23.3-17.5,9.5Z" transform="translate(0 -390.65)"/><path class="cls-130" d="M188.2,610.7l11.7-18.5,3.6,13.8Z" transform="translate(0 -390.65)"/><path class="cls-131" d="M199.7,671.7l12.4,3.9-19-12.3Zm-.9-13.8,13.6,10.5,6.5-13.7-20.3-6.3Zm37.4,12.6,1.7-15.6-18.9-.2Zm20.1-5.4-5.5,13,22.4-8.3Z" transform="translate(0 -390.65)"/><path class="cls-132" d="M177,605.8l5.5-17.7,5.6,22.6Z" transform="translate(0 -390.65)"/><path class="cls-133" d="M182.5,588.1l5.9-15.1-12.2,5.2Zm86.8,4-3.9,20.6,18-2.2Z" transform="translate(0 -390.65)"/><path class="cls-134" d="M314.3,611.8h0l-.7-23.5v-.1l-3.5-11.7h0L300,557.3,288.4,545h0l-12.3-8.8h0L265.5,532h-.1l-12.8-4.5h-.1l-21-1.3h-.1l-13.3,2.4h0l-10.8,3.3h-.1L188,543.1l-12,13.4-11.1,18h0l-4.4,15.3v.1l-.8,23.2v.1l4.1,15.8v.1l9.1,18h0l6.3,8.9h0l8.9,8.2h0l11.1,7.5h0l13.7,6h.1l23,2.7h0l12,.3h.1l17.8-5h.1l15.9-8.7h0l10.2-8.7,7.9-9.5h0l11.2-22v-.1l2.5-15h0ZM188.8,663.9l-2.3-2.1,5.2,4.1Zm33.7,8.8-8.1-3.8,19.2,1.7Zm3-69.3-21.3,2.2,13.2-22.1Zm-7.4-19.9,26.1,13.1-17.9,6.7Zm7.6,20.6,2.5,19.7-23.7-17.4Zm2.2,20.3-25.8,8.1,1.7-25.8Zm-1.5-20,20,13.3-17.5,6.4Zm.4-.6,17.9-6.7,2.1,20Zm27.5-23.1,16.6-7.9L269,591.5ZM268.5,592l-22.8,4.2,8.1-15ZM245,595.9l-14.9-27.4,23,12.2Zm-.8-.1L218,582.6l11.3-14.3Zm-40.5,9.4-3.3-12.8,16.1-8.7Zm-2.3,26.7L188.7,611l14.4-4.4Zm26.1-6.6-13,13.9-11.9-6Zm19.2-6.9L242,635l-12.7-10.4Zm-1.3-21,19.3,15.2-17.2,4.7Zm.4-.6,23.1-4.2-3.7,19.6Zm23.9-5.1,1.8-18.5,10.7,14.5Zm12.8-3.3.6,21.2-13.2-17.2ZM254,580.1l.4-15.7,16.1,7.9Zm-.7,0-23-12.2,23.4-3.6ZM217.5,582l-4.3-15.7,15.4,1.6Zm-.5.6-16.3,8.8,12-24.5Zm-13.9,23.3L189,610.2l10.8-17.1Zm-2.6,25.9-17.7-12.5,5.3-7.8Zm1.5,1.8,11.9,6-14.6,8.1Zm26.7-8.6,12.7,10.4-25.9,3.7Zm18.7-6.5,18.8,18.2-23.5-1.3Zm.5-.5,17.3-4.8,1.6,23Zm21.6-25,13.3,17.3-16.9,2Zm13.7-4.5,11.2,6.4-10.6,14.7Zm.1-.8,7-11.4,4.1,17.7Zm-.5-.5-10.7-14.5,17.7,2.9Zm-28.1-23.5,12.5-11.4,3.6,19.3Zm-24.8,3.5,8-14.1,15.3,10.5Zm-16.6-1.6,9-18.4,6.4,20Zm-13.4,25.9L189,573.2l23.2-6.8Zm-11.6,18.4L183,588.6l16.3,3.9Zm-5.8,8.7-4.8-12.1,10,4.4Zm18.8,14.6-2.7,14.2-15.1-26.8Zm13.1,6.9,4.1,14-18.9-5.9Zm27.4-4-4.1,18.2-22.1-14.5Zm24.4,1.3-10.6,9.7-12.4-11Zm-.3-23.7,16.4,16.6-14.8,6.3Zm.3-.7,16.9-2-.6,18.6Zm28.6-17.5,6.7,22.8L284,610.5Zm-3.9-19.2,11,8.4L295,594ZM272,572l10.2-11.7,7.5,14.7Zm-.5-.5-3.6-19.2,13.8,7.4Zm-17.4-8.1-15.3-10.5,27.7-.8Zm-24.8,3.4-6.4-19.9,14.3,5.8Zm-16.6-1.5-7.4-10.1,16.3-8.1Zm-.5.4-22.7,6.6,15.2-16.7Zm-13,26L183,587.9l5.5-14.1Zm-11.5,18.5-10.2-4.5,5.1-16.3Zm-5.8,8.9-8.8,3.2,3.9-15.4Zm15.9,28.2-19.4-12,4.1-15.1Zm19.7,7.2-18.3,2.9-.1-8.6Zm-2.3-14.1,21.5,14.1-17.4-.2Zm27.2-4.1,12.5,11.1-16.6,6.9Zm24.6,1.4,6.6,18.3-17.3-8.6Zm.5-.4,14.7-6.3-8.1,24.7Zm16.3-26.2,17.5,7.8-18.1,10.8Zm11.7-15.5,11.5,8.2-4.9,14Zm-.1-.9,6.9-9.3,4.5,17.4Zm-4.6-19.4,3.2-9.9,7.6,18.1Zm-.5-.8L283,560.3l10.5,4.2ZM268.7,552l15.3-1-1.9,8.2Zm-30.2.2,10.7-13.3,17.2,12.5Zm-.6-.3-5.5-14.5,16.2,1.3Zm-.7.1-14.1-5.7,8.7-8.6Zm-31.8,2.4,6.1-17.6,10.3,9.4Zm-16.3,17.4,4.4-18.2,10.6,1.8Zm-6.6,15.6-5.7-9,11-4.7Zm-.3.8-4.9,15.6-.7-24.3Zm-5.6,18-4,15.6-6.2-15.6Zm-10.4-.6.3-15.3,9.9,15.3Zm15.7,14.3-4,14.5-4.8-11.3Zm15.9,28.2-12,1.7-6.9-13.4Zm.6.7.1,8.5-11.9-6.8Zm20,6.3-6.1,12.7L199.6,658Zm.8.1,16,14.8L213,668Zm.7-.2,17.6.2-1.6,14.6Zm35.4-6.9.7,16.5L238.8,655Zm.7,0,17.4,8.6-16.7,7.8Zm27-16.9,8.6,13.5-16.8,11.2Zm.6-.3,16.6,2.5-8.1,10.9Zm.3-.7,17.8-10.7-1.2,13.1Zm23.5-25.4,3.1,11-7.9,2.5ZM303.2,586l9,11.4-4.6,5.5Zm-8.5-20.6,11.7,8.6-4,9.7Zm-12-5.9,1.9-8.1,8.4,12.2Zm-14.9-8.2-2-12.3,17.6,11.3Zm-.8-.4-16.8-12.2,14.7-.1Zm-34.1-14.2,10.9-6.7,4.7,8Zm-10.5,9.2-10.1-9.3,18.7.7Zm-17.9,8.8L194,552.9l16.5-15.5Zm-16.3,17.7-10.8-8.8,15.3-9.7Zm-.5.5-11.1,4.8.5-13.4Zm-11.1,31.7-10-15.5,9.3-10Zm-4.3,18.3-1.9,9.5-3.7-23.5Zm.5,1.2,4.7,11-6.7-.9Zm12.1,25.6-7.1-1.4.5-11.6Zm13.4,8.2-5,4.8-6.7-11.6Zm.6.4,12.1,9.3-17.1-4.5Zm39.3-2.9,17.2,9.6-18.8,5.1Zm35.6,1.9-.9,12L257.4,665ZM291,645.9l-9.6,16.8-6.7-5.9Zm9.4-11.8v8.8l-7.6,1.5Zm2-15,7.8-2.5-8.9,14.9Zm5.4-15.4,4.4-5.2-1.4,15.6Zm-5-19.2,4-9.6,5.1,21Zm-8.4-20.2,2.8-4.9,8.4,13.1Zm-.5-.6-8.2-11.9,11,7Zm-27.6-25.2,8.3-.9,8.4,11.6Zm-17-.5-4.6-7.8,18.8,7.7Zm-17.4-1.5-3.7-6.5,14.5-.1Zm-.7.1-18.2-.7,14.5-5.8Zm-36.9,15.1,6.5-14.2,9.5-.9Zm-1.1.9-6-5.7,12.6-8.6Zm-.5.5-14.8,9.5,8.9-15.2Zm-16.8,24.6-7.4-4,8-9.1Zm-.2.6-9.1,9.8,1.6-13.8Zm-10.2,27.4-3.8,3.1,4.1-16.6Zm0,.8,3.9,24.5-8-21.2Zm12.1,29.3-.4,11.5L171,634.8Zm7.7,14.7,6.4,10.9-13.1-12.2Zm26.8,18.1-.3,6.3-16.7-10.8Zm.7.3,8.7,4-8.9,2.2Zm23,2,.3,8.9-12.6-6.6Zm19.9-5.3-5.1,12-13.5-7Zm.8-.1,15.5,4.3-20.6,7.7Zm18-8.1,6.6,5.7-7.5,5.8Zm17.8-12.3,7.6-1.5-16.6,17.3Zm8.9-3.3-.1-8.6,7-4.3Zm.6-9.8,8.5-14.3-1.6,10Zm10.8-30.8,1,10.5-2.2,3.1Zm-5.1-26.3,1.9,1.8,1.9,14.1Zm-9.8-16,1.8-.9,5.3,12Zm-12.8-8.4,3.2-4.6,7.8,11.6Zm-.5-.5-8.3-11.5,11.6,6.9Zm-18.8-12.1-.1-5,8,4.2Zm-.7-.1-18.4-7.6,18.3,2.4Zm-36.3-8.5,2.9-2.5,9.7,2.4Zm-16,6,5.7-6.1,7.9.7Zm-1.5.6-8.6.8,14.1-6.7Zm-23.6,9.9.9-2.1,7.9-3.9Zm-10.4,16.7-.6-5.6,8.6-8.2Zm-.6,1-7.1,8.1,6.6-13.5Zm-10.6,25.3-4.6.8,6-13.7Zm-.2.8-4.4,17.6-.3-16.7Zm3.8,43.7-5.2-4.3-2.5-16Zm7.3,14.7-3.3-1.1-2.2-9.9Zm14.1,13.7-11-6-1.8-5.9Zm2,1.9,4.8,6.1-14.5-11.4Zm1.8,1.1,15.1,9.8-9.9-3.1Zm27.7,8.7,11.7,6.1-20.4-4Zm14.1-2.3,13.1,6.8-12.9,2Zm34.9-.4-5.3,4.6-12,1.9Zm9.9-6.9.4,2.9-6.9,2.1Zm17.9-18.5-7.1,12.6-9,4.2Zm2-2.1,4.8-8.8-5.1,12.1Zm10-27.1,1.8-2.5-2.9,9.5Zm1.8-18.7v-.2l.2-2.4.2,6.1Zm-.5-3.5-1.8-13,2.2,7.4Zm-5.3-20.3-3.3-7.4,4.6,8.7Zm-9.9-15.4-6.5-9.7,8.3,8.8Zm-21.9-20.9.4-.3,5,3.6Zm-.6-.4-3.4-1.8,3.8,1.5ZM246,529.4l6.4-1.3,9.6,3.4Zm-2-.2-8.7-2.1,14.6.9Zm-16.5.1-6.8-.6,9.5-1.7Zm-23.9,6.1,3.9-2.9,6.2-1.9Zm-3.2,1.5-3.4,1.7,5.2-3Zm-14.1,9.7-4,3.8,4.6-5.1Zm-18.6,26.9-1.8.7,6.9-11.2Zm-2.3,1.6,1.9-.7-4.8,11Zm-4.8,28.5.1,6.1-.4,1.1Zm.3,7.7,1.7,11.3-2.4-9.2Zm9.1,23.3,2.2,10L165,630.5Zm7.2,14.3,1.6,5.2-4.6-6.3Zm34.7,27,.6,1-6.8-3Zm1.8,1.5-.8-1.3,14.8,2.9Zm36.2,1.2-1.6,1.8-8.1-.2Zm1.1-.2,9.7-1.5L249.6,680Zm22.3-8.4,5.7-1.8-10,5.5Zm9.1-3.7-.4-2.9,8.3-3.8Zm18-21.6-.4,3.9-5.5,6.5Zm8.9-16.5,1.4-.7-6.4,12.6Zm1.9-1.7-1.6.8,3.2-10.4Z" transform="translate(0 -390.65)"/><path class="cls-135" d="M314.3,611.8h0l-.7-23.5v-.1l-3.5-11.7h0L300,557.3,288.4,545h0l-12.3-8.8h0L265.5,532h-.1l-12.8-4.5h-.1l-21-1.3h-.1l-13.3,2.4h0l-10.8,3.3h-.1L188,543.1l-12,13.4-11.1,18h0l-4.4,15.3v.1l-.8,23.2v.1l4.1,15.8v.1l9.1,18h0l6.3,8.9h0l8.9,8.2h0l11.1,7.5h0l13.7,6h.1l23,2.7h0l12,.3h.1l17.8-5h.1l15.9-8.7h0l10.2-8.7,7.9-9.5h0l11.2-22v-.1l2.5-15h0ZM188.8,663.9l-2.3-2.1,5.2,4.1Zm33.7,8.8-8.1-3.8,19.2,1.7Zm3-69.3-21.3,2.2,13.2-22.1Zm-7.4-19.9,26.1,13.1-17.9,6.7Zm7.6,20.6,2.5,19.7-23.7-17.4Zm2.2,20.3-25.8,8.1,1.7-25.8Zm-1.5-20,20,13.3-17.5,6.4Zm.4-.6,17.9-6.7,2.1,20Zm27.5-23.1,16.6-7.9L269,591.5ZM268.5,592l-22.8,4.2,8.1-15ZM245,595.9l-14.9-27.4,23,12.2Zm-.8-.1L218,582.6l11.3-14.3Zm-40.5,9.4-3.3-12.8,16.1-8.7Zm-2.3,26.7L188.7,611l14.4-4.4Zm26.1-6.6-13,13.9-11.9-6Zm19.2-6.9L242,635l-12.7-10.4Zm-1.3-21,19.3,15.2-17.2,4.7Zm.4-.6,23.1-4.2-3.7,19.6Zm23.9-5.1,1.8-18.5,10.7,14.5Zm12.8-3.3.6,21.2-13.2-17.2ZM254,580.1l.4-15.7,16.1,7.9Zm-.7,0-23-12.2,23.4-3.6ZM217.5,582l-4.3-15.7,15.4,1.6Zm-.5.6-16.3,8.8,12-24.5Zm-13.9,23.3L189,610.2l10.8-17.1Zm-2.6,25.9-17.7-12.5,5.3-7.8Zm1.5,1.8,11.9,6-14.6,8.1Zm26.7-8.6,12.7,10.4-25.9,3.7Zm18.7-6.5,18.8,18.2-23.5-1.3Zm.5-.5,17.3-4.8,1.6,23Zm21.6-25,13.3,17.3-16.9,2Zm13.7-4.5,11.2,6.4-10.6,14.7Zm.1-.8,7-11.4,4.1,17.7Zm-.5-.5-10.7-14.5,17.7,2.9Zm-28.1-23.5,12.5-11.4,3.6,19.3Zm-24.8,3.5,8-14.1,15.3,10.5Zm-16.6-1.6,9-18.4,6.4,20Zm-13.4,25.9L189,573.2l23.2-6.8Zm-11.6,18.4L183,588.6l16.3,3.9Zm-5.8,8.7-4.8-12.1,10,4.4Zm18.8,14.6-2.7,14.2-15.1-26.8Zm13.1,6.9,4.1,14-18.9-5.9Zm27.4-4-4.1,18.2-22.1-14.5Zm24.4,1.3-10.6,9.7-12.4-11Zm-.3-23.7,16.4,16.6-14.8,6.3Zm.3-.7,16.9-2-.6,18.6Zm28.6-17.5,6.7,22.8L284,610.5Zm-3.9-19.2,11,8.4L295,594ZM272,572l10.2-11.7,7.5,14.7Zm-.5-.5-3.6-19.2,13.8,7.4Zm-17.4-8.1-15.3-10.5,27.7-.8Zm-24.8,3.4-6.4-19.9,14.3,5.8Zm-16.6-1.5-7.4-10.1,16.3-8.1Zm-.5.4-22.7,6.6,15.2-16.7Zm-13,26L183,587.9l5.5-14.1Zm-11.5,18.5-10.2-4.5,5.1-16.3Zm-5.8,8.9-8.8,3.2,3.9-15.4Zm15.9,28.2-19.4-12,4.1-15.1Zm19.7,7.2-18.3,2.9-.1-8.6Zm-2.3-14.1,21.5,14.1-17.4-.2Zm27.2-4.1,12.5,11.1-16.6,6.9Zm24.6,1.4,6.6,18.3-17.3-8.6Zm.5-.4,14.7-6.3-8.1,24.7Zm16.3-26.2,17.5,7.8-18.1,10.8Zm11.7-15.5,11.5,8.2-4.9,14Zm-.1-.9,6.9-9.3,4.5,17.4Zm-4.6-19.4,3.2-9.9,7.6,18.1Zm-.5-.8L283,560.3l10.5,4.2ZM268.7,552l15.3-1-1.9,8.2Zm-30.2.2,10.7-13.3,17.2,12.5Zm-.6-.3-5.5-14.5,16.2,1.3Zm-.7.1-14.1-5.7,8.7-8.6Zm-31.8,2.4,6.1-17.6,10.3,9.4Zm-16.3,17.4,4.4-18.2,10.6,1.8Zm-6.6,15.6-5.7-9,11-4.7Zm-.3.8-4.9,15.6-.7-24.3Zm-5.6,18-4,15.6-6.2-15.6Zm-10.4-.6.3-15.3,9.9,15.3Zm15.7,14.3-4,14.5-4.8-11.3Zm15.9,28.2-12,1.7-6.9-13.4Zm.6.7.1,8.5-11.9-6.8Zm20,6.3-6.1,12.7L199.6,658Zm.8.1,16,14.8L213,668Zm.7-.2,17.6.2-1.6,14.6Zm35.4-6.9.7,16.5L238.8,655Zm.7,0,17.4,8.6-16.7,7.8Zm27-16.9,8.6,13.5-16.8,11.2Zm.6-.3,16.6,2.5-8.1,10.9Zm.3-.7,17.8-10.7-1.2,13.1Zm23.5-25.4,3.1,11-7.9,2.5ZM303.2,586l9,11.4-4.6,5.5Zm-8.5-20.6,11.7,8.6-4,9.7Zm-12-5.9,1.9-8.1,8.4,12.2Zm-14.9-8.2-2-12.3,17.6,11.3Zm-.8-.4-16.8-12.2,14.7-.1Zm-34.1-14.2,10.9-6.7,4.7,8Zm-10.5,9.2-10.1-9.3,18.7.7Zm-17.9,8.8L194,552.9l16.5-15.5Zm-16.3,17.7-10.8-8.8,15.3-9.7Zm-.5.5-11.1,4.8.5-13.4Zm-11.1,31.7-10-15.5,9.3-10Zm-4.3,18.3-1.9,9.5-3.7-23.5Zm.5,1.2,4.7,11-6.7-.9Zm12.1,25.6-7.1-1.4.5-11.6Zm13.4,8.2-5,4.8-6.7-11.6Zm.6.4,12.1,9.3-17.1-4.5Zm39.3-2.9,17.2,9.6-18.8,5.1Zm35.6,1.9-.9,12L257.4,665ZM291,645.9l-9.6,16.8-6.7-5.9Zm9.4-11.8v8.8l-7.6,1.5Zm2-15,7.8-2.5-8.9,14.9Zm5.4-15.4,4.4-5.2-1.4,15.6Zm-5-19.2,4-9.6,5.1,21Zm-8.4-20.2,2.8-4.9,8.4,13.1Zm-.5-.6-8.2-11.9,11,7Zm-27.6-25.2,8.3-.9,8.4,11.6Zm-17-.5-4.6-7.8,18.8,7.7Zm-17.4-1.5-3.7-6.5,14.5-.1Zm-.7.1-18.2-.7,14.5-5.8Zm-36.9,15.1,6.5-14.2,9.5-.9Zm-1.1.9-6-5.7,12.6-8.6Zm-.5.5-14.8,9.5,8.9-15.2Zm-16.8,24.6-7.4-4,8-9.1Zm-.2.6-9.1,9.8,1.6-13.8Zm-10.2,27.4-3.8,3.1,4.1-16.6Zm0,.8,3.9,24.5-8-21.2Zm12.1,29.3-.4,11.5L171,634.8Zm7.7,14.7,6.4,10.9-13.1-12.2Zm26.8,18.1-.3,6.3-16.7-10.8Zm.7.3,8.7,4-8.9,2.2Zm23,2,.3,8.9-12.6-6.6Zm19.9-5.3-5.1,12-13.5-7Zm.8-.1,15.5,4.3-20.6,7.7Zm18-8.1,6.6,5.7-7.5,5.8Zm17.8-12.3,7.6-1.5-16.6,17.3Zm8.9-3.3-.1-8.6,7-4.3Zm.6-9.8,8.5-14.3-1.6,10Zm10.8-30.8,1,10.5-2.2,3.1Zm-5.1-26.3,1.9,1.8,1.9,14.1Zm-9.8-16,1.8-.9,5.3,12Zm-12.8-8.4,3.2-4.6,7.8,11.6Zm-.5-.5-8.3-11.5,11.6,6.9Zm-18.8-12.1-.1-5,8,4.2Zm-.7-.1-18.4-7.6,18.3,2.4Zm-36.3-8.5,2.9-2.5,9.7,2.4Zm-16,6,5.7-6.1,7.9.7Zm-1.5.6-8.6.8,14.1-6.7Zm-23.6,9.9.9-2.1,7.9-3.9Zm-10.4,16.7-.6-5.6,8.6-8.2Zm-.6,1-7.1,8.1,6.6-13.5Zm-10.6,25.3-4.6.8,6-13.7Zm-.2.8-4.4,17.6-.3-16.7Zm3.8,43.7-5.2-4.3-2.5-16Zm7.3,14.7-3.3-1.1-2.2-9.9Zm14.1,13.7-11-6-1.8-5.9Zm2,1.9,4.8,6.1-14.5-11.4Zm1.8,1.1,15.1,9.8-9.9-3.1Zm27.7,8.7,11.7,6.1-20.4-4Zm14.1-2.3,13.1,6.8-12.9,2Zm34.9-.4-5.3,4.6-12,1.9Zm9.9-6.9.4,2.9-6.9,2.1Zm17.9-18.5-7.1,12.6-9,4.2Zm2-2.1,4.8-8.8-5.1,12.1Zm10-27.1,1.8-2.5-2.9,9.5Zm1.8-18.7v-.2l.2-2.4.2,6.1Zm-.5-3.5-1.8-13,2.2,7.4Zm-5.3-20.3-3.3-7.4,4.6,8.7Zm-9.9-15.4-6.5-9.7,8.3,8.8Zm-21.9-20.9.4-.3,5,3.6Zm-.6-.4-3.4-1.8,3.8,1.5ZM246,529.4l6.4-1.3,9.6,3.4Zm-2-.2-8.7-2.1,14.6.9Zm-16.5.1-6.8-.6,9.5-1.7Zm-23.9,6.1,3.9-2.9,6.2-1.9Zm-3.2,1.5-3.4,1.7,5.2-3Zm-14.1,9.7-4,3.8,4.6-5.1Zm-18.6,26.9-1.8.7,6.9-11.2Zm-2.3,1.6,1.9-.7-4.8,11Zm-4.8,28.5.1,6.1-.4,1.1Zm.3,7.7,1.7,11.3-2.4-9.2Zm9.1,23.3,2.2,10L165,630.5Zm7.2,14.3,1.6,5.2-4.6-6.3Zm34.7,27,.6,1-6.8-3Zm1.8,1.5-.8-1.3,14.8,2.9Zm36.2,1.2-1.6,1.8-8.1-.2Zm1.1-.2,9.7-1.5L249.6,680Zm22.3-8.4,5.7-1.8-10,5.5Zm9.1-3.7-.4-2.9,8.3-3.8Zm18-21.6-.4,3.9-5.5,6.5Zm8.9-16.5,1.4-.7-6.4,12.6Zm1.9-1.7-1.6.8,3.2-10.4Z" transform="translate(0 -390.65)"/><path class="cls-136" d="M383.5,548c-6.9-16.6-20.9-34.5-31.9-40.2A167,167,0,0,1,367.7,556v.4a144.11,144.11,0,0,1-4.9,107.2c-18.2,39.1-62.3,79.1-131.2,77.1-74.5-2.1-140.1-57.4-152.4-129.8-2.2-11.4,0-17.2,1.1-26.5a123.58,123.58,0,0,0-2.6,21.9v.8C78,695,149.4,765.9,237.1,765.6A158.8,158.8,0,0,0,393,633.9c.3-2,.5-4.1.7-6.1A163.56,163.56,0,0,0,383.5,548Z" transform="translate(0 -390.65)"/><path class="cls-137" d="M383.5,548c-6.9-16.6-20.9-34.5-31.9-40.2A167,167,0,0,1,367.7,556v.4a144.11,144.11,0,0,1-4.9,107.2c-18.2,39.1-62.3,79.1-131.2,77.1-74.5-2.1-140.1-57.4-152.4-129.8-2.2-11.4,0-17.2,1.1-26.5a123.58,123.58,0,0,0-2.6,21.9v.8C78,695,149.4,765.9,237.1,765.6A158.8,158.8,0,0,0,393,633.9c.3-2,.5-4.1.7-6.1A163.56,163.56,0,0,0,383.5,548Z" transform="translate(0 -390.65)"/><path class="cls-138" d="M79.2,610.9c12.3,72.4,77.9,127.8,152.4,129.8,69,2,113-38.1,131.2-77.1a143.65,143.65,0,0,0,4.9-107.2v-.1c5.6,36.8-13.1,72.4-42.3,96.6l-.1.2c-57,46.4-111.6,28-122.6,20.5-.8-.4-1.5-.8-2.3-1.2-33.2-15.9-46.9-46.2-44-72.1a40.68,40.68,0,0,1-37.6-23.7,59.59,59.59,0,0,1,58.4-2.3,78.88,78.88,0,0,0,59.6,2.3c-.1-1.3-27.7-12.3-38.5-22.9-5.8-5.7-8.5-8.4-10.9-10.5-1.3-1.1-2.7-2.1-4.1-3.1-.9-.6-2-1.3-3.3-2.2-11.6-7.5-34.6-7.1-35.4-7.1h-.1c-6.3-8-5.9-34.3-5.5-39.8a24.34,24.34,0,0,0-5.3,2.8,115.72,115.72,0,0,0-15.5,13.3,139.75,139.75,0,0,0-14.8,17.8h0A133.36,133.36,0,0,0,82.1,573c-.1.4-5.7,25.1-2.9,37.9Z" transform="translate(0 -390.65)"/><path class="cls-139" d="M292.5,548.2a83.58,83.58,0,0,1,14.7,19.3c.8.6,1.6,1.3,2.4,2,36,33.2,17.1,80.1,15.7,83.4,29.2-24.1,48-59.8,42.3-96.6-18-44.8-48.4-62.8-73.3-102.1-1.3-2-2.5-4-3.7-6.1-.6-1.1-1.2-2.2-1.7-3.3a34.13,34.13,0,0,1-2.4-6.3.43.43,0,0,0-.4-.4h-.5c-6,3-42.4,60.7,6.9,110.1Z" transform="translate(0 -390.65)"/><path class="cls-140" d="M231.4,526.4l21,1.3,12.8,4.5,10.6,4.2,12.3,8.8,11.5,12.2,4,7.6c.9.6,1.7,1.1,2.6,1.7.3.2.7.5,1,.7a83.69,83.69,0,0,0-14.7-19.2c-49.4-49.4-12.9-107.1-6.8-110l.1-.1c-39.9,23.4-53.4,66.6-54.7,88.2v.1Z" transform="translate(0 -390.65)"/><path class="cls-141" d="M180,537.9c1.1.7,2.2,1.4,3.3,2.2a73,73,0,0,1-.4-38.8,118.51,118.51,0,0,0-38.2,29.5C145.4,530.8,168.4,530.4,180,537.9Z" transform="translate(0 -390.65)"/><path class="cls-142" d="M165.2,621.5s7.3-27.3,52.5-27.3c4.9,0,18.8-13.6,19.1-17.6a79.36,79.36,0,0,1-59.6-2.3,60.1,60.1,0,0,0-58.4,2.3,41,41,0,0,0,37.6,23.7c-2.9,26,10.8,56.2,44,72.1.7.4,1.4.7,2.2,1.1-19.4-10.1-35.5-29-37.4-52Z" transform="translate(0 -390.65)"/><path class="cls-143" d="M309.6,569.4c-.8-.7-1.6-1.3-2.4-2a8.65,8.65,0,0,0-1-.7,54.81,54.81,0,0,0-38.3-9.3C325,586,309.7,684.3,230.5,680.6a70.33,70.33,0,0,1-20.7-4c-1.6-.6-3.1-1.2-4.7-1.9-.9-.4-1.8-.8-2.7-1.3l.1.1c11.1,7.5,65.6,25.9,122.6-20.5l.1-.2c1.6-3.3,20.4-50.2-15.6-83.4Z" transform="translate(0 -390.65)"/><path class="cls-144" d="M383.4,548c-6.9-16.6-20.9-34.5-31.9-40.2A167,167,0,0,1,367.6,556v.3c-18-44.8-48.4-62.8-73.3-102.1-1.3-2-2.5-4-3.7-6.1l-1.8-3.3a34.13,34.13,0,0,1-2.4-6.3.43.43,0,0,0-.4-.4h-.4a.1.1,0,0,0-.1.1l.1-.1c-39.9,23.4-53.4,66.7-54.7,88.4l.3-.1,21,1.3,11.8,4.2,11.6,4.5,12.3,8.8,11.5,12.2s4,7.5,4,7.6a54,54,0,0,0-35.7-7.6c57.1,28.6,41.8,126.9-37.4,123.2a70.33,70.33,0,0,1-20.7-4c-1.5-.6-3.1-1.2-4.7-1.9-.9-.4-1.8-.8-2.7-1.3l.1.1c-.8-.4-1.5-.8-2.3-1.2.7.4,1.4.7,2.2,1.1-19.4-10-35.4-29-37.4-52,0,0,7.3-27.3,52.5-27.3,4.9,0,18.8-13.6,19.1-17.6-.1-1.3-27.7-12.3-38.5-22.9-5.8-5.7-8.5-8.4-10.9-10.5-1.3-1.1-2.7-2.1-4.1-3.1a73,73,0,0,1-.4-38.8,117.43,117.43,0,0,0-38.2,29.6h-.1c-6.3-8-5.8-34.3-5.5-39.8a26.87,26.87,0,0,0-5.3,2.8,115.72,115.72,0,0,0-15.5,13.3,139.75,139.75,0,0,0-14.8,17.8A138.29,138.29,0,0,0,82,573c-.1.3-.1.7-.2,1-.3,1.4-1.6,8.5-1.8,10h0a181.48,181.48,0,0,0-2.3,22.2v.8c.2,87.9,71.4,158.9,159.1,158.8A158.85,158.85,0,0,0,393,633.9c.3-2,.5-4.1.7-6.1A163.46,163.46,0,0,0,383.4,548Zm-15.7,8.2v0Z" transform="translate(0 -390.65)"/><path class="cls-145" d="M236.8,576.6s-.7.3-1.9.7c-3.1,5.3-14.1,15.3-18.3,15.3-45.1-.2-52.6,26.8-52.6,26.8a59.21,59.21,0,0,0,8.8,26,58.9,58.9,0,0,1-7.6-23.8s7.3-27.3,52.5-27.3c4.9-.2,18.8-13.8,19.1-17.7Z" transform="translate(0 -390.65)"/><path class="cls-146" d="M367.7,556.4v0c-1-2.7-2.2-5.3-3.4-7.9-.4-.9-.8-1.7-1.2-2.5-.8-1.6-1.6-3.3-2.4-4.8a25.43,25.43,0,0,0-1.6-2.8c-.8-1.4-1.5-2.8-2.3-4.1-.6-1-1.2-1.9-1.8-2.8-.8-1.2-1.5-2.5-2.3-3.7-.6-.9-1.3-1.9-1.9-2.8-.8-1.1-1.6-2.3-2.4-3.4-.7-.9-1.3-1.8-2-2.7-.8-1.1-1.6-2.1-2.4-3.2l-2.1-2.7c-.8-1-1.6-2-2.5-3.1-.7-.9-1.5-1.8-2.2-2.6a17.41,17.41,0,0,0-1.2-1.4l.5.6c-13.8-16.3-28.7-31.2-42.1-52.3-1.3-2-2.5-4-3.7-6.1-.6-1.1-1.2-2.2-1.7-3.3a38.27,38.27,0,0,1-2.2-5.6,1,1,0,0,0-.1-.3c0-.1-.1-.2-.1-.4a.43.43,0,0,0-.4-.4h-.4a.1.1,0,0,0-.1.1,6.07,6.07,0,0,0-1,.7c-.1.1-.2.1-.2.2l-1.3,1.3h0c-9.5,11.2-33.8,59.9,5.4,103.5-36.7-43.2-13.6-89.9-3.5-102.1a28.64,28.64,0,0,0,2,4.8c.5,1.1,1.1,2.2,1.7,3.3,1.2,2.1,2.5,4.1,3.7,6.1,24.9,39.3,55.3,57.4,73.3,102.1v.1a143.63,143.63,0,0,1-4.9,107.2,130.08,130.08,0,0,1-25.2,36.2,133,133,0,0,0,27.1-38.1,143.37,143.37,0,0,0,4.9-107.1Z" transform="translate(0 -390.65)"/><path class="cls-147" d="M285.7,438.2h0c-35.9,21-50.4,58.2-53.8,81.1a117.71,117.71,0,0,1,48-74.1,20.74,20.74,0,0,1,5.8-7Z" transform="translate(0 -390.65)"/><path class="cls-148" d="M325.3,653l.1-.2c1.4-3.3,20.3-50.3-15.7-83.4-.8-.7-1.6-1.3-2.4-2a8.65,8.65,0,0,0-1-.7,55.34,55.34,0,0,0-36.8-9.5h0c-.5.1-1,.1-1.4.2,56.5,28.2,42.1,124.7-34.7,123.3h.6c77.9,3.1,93.2-92.6,39.1-122.6a58.48,58.48,0,0,1,30.1,8.7l1,.7c.8.6,1.7,1.2,2.5,1.9,37.3,31.8,20.3,79.4,19,82.8l-.1.2" transform="translate(0 -390.65)"/><path class="cls-149" d="M177.6,575.8a79.51,79.51,0,0,0,57.4,1.4,79.11,79.11,0,0,1-57.8-3,60.39,60.39,0,0,0-57.6,1.8l-.2.1h0l-.2.1-.1.1-.1.1h-.1l.1.2h0l.1.2h0l.1.3h0c.3.7.7,1.3,1,2A40.58,40.58,0,0,0,156.4,600c-2.9,25.2,10,54.4,41.1,70.7-29.7-17.2-42.2-48.3-38.7-73-22.9-.6-33.2-14.4-36.1-20.2a62.64,62.64,0,0,1,54.9-1.7Z" transform="translate(0 -390.65)"/><path class="cls-150" d="M183.3,540l-.8-.5.8.5Zm-.2-.6a74.93,74.93,0,0,1-.3-38.2A115.46,115.46,0,0,0,146,529.1a119.23,119.23,0,0,1,33.5-23.7A76.85,76.85,0,0,0,183.1,539.4Z" transform="translate(0 -390.65)"/><path class="cls-151" d="M83,627.5l-.1-.5a146.34,146.34,0,0,1-3.7-16.2,70.42,70.42,0,0,1,0-20.5,142.44,142.44,0,0,0-1.5,15.9v.8A159.06,159.06,0,0,0,184.3,757.1,160.48,160.48,0,0,1,83,627.5Z" transform="translate(0 -390.65)"/><path class="cls-152" d="M81.7,611.5c-2.8-12.8,2.9-37.5,2.9-37.8a135.09,135.09,0,0,1,21.3-48.1h0a139.75,139.75,0,0,1,14.8-17.8,122.31,122.31,0,0,1,15.5-13.3,4.35,4.35,0,0,1,.7-.4c-.1,12.1.6,32.5,6.2,39.2h.1c.8,0,23.9-1.1,35.7,6.1,1.3.8,2.4,1.5,3.4,2.1a31.88,31.88,0,0,1,4.2,3c2.5,2,5.3,4.7,11.2,10.2,8.6,8,27.3,15.9,35.4,19.7-7.9-4-26.5-12.5-34.8-20.7-5.8-5.7-8.5-8.4-10.9-10.5-1.3-1.1-2.7-2.1-4.1-3.1-.9-.6-2-1.3-3.3-2.2-11.6-7.5-34.6-7.1-35.4-7.1h-.1c-5.8-7.3-5.9-29.9-5.6-37.9V491h-.4l-.1.1-.2.1-.2.1-.2.1-.2.1-.2.1-.2.1-.1.1c-1.2.7-2.4,1.3-3.5,2a115.72,115.72,0,0,0-15.5,13.3A134,134,0,0,0,103.3,525h0A133.36,133.36,0,0,0,82,573.1c-.1.3-5.7,25-2.9,37.8,10.4,61.6,59.5,110.9,119.8,125.5C139.9,721,92,672.3,81.7,611.5Z" transform="translate(0 -390.65)"/><path class="cls-153" d="M383.5,548a97.41,97.41,0,0,0-27.9-37.7l-.3-.2-.9-.6a.52.52,0,0,0-.4-.2l-.9-.6-.3-.2a7.46,7.46,0,0,1-1.2-.7c.4.8.8,1.7,1.3,2.5.3.5.5,1,.8,1.6A163.35,163.35,0,0,1,367.8,556v.3c5.6,36.8-13.1,72.4-42.3,96.6l-.1.2c-36.4,29.6-71.7,32.8-95.4,29.3,23.6,4.4,60.9,2.6,99.3-28.7l.1-.2c29.2-24.1,48-59.8,42.3-96.6v-.3a158.44,158.44,0,0,0-11.6-38.7,104.57,104.57,0,0,1,17.4,24.8,158.45,158.45,0,0,1,14.7,77.9c-.1,2-.2,4.1-.4,6.1A159.49,159.49,0,0,1,211.4,763.9a158.93,158.93,0,0,0,181.8-130c.3-2,.5-4.1.7-6.1A164.7,164.7,0,0,0,383.5,548Zm-15.8,8.4v0Z" transform="translate(0 -390.65)"/></g><text class="cls-154" transform="translate(445.52 309.35)">FIREF<tspan class="cls-155" x="439.28" y="0">O</tspan><tspan class="cls-156" x="549.6" y="0">X</tspan></text><text class="cls-157" transform="translate(445.52 179.2)">GET</text></svg>